<?xml version="1.0" encoding="UTF-8"?>
<svg xmlns="http://www.w3.org/2000/svg" xmlns:xlink="http://www.w3.org/1999/xlink" width="465pt" height="318pt" viewBox="0 0 465 318">
<defs>
<g>
<g id="glyph-0-0">
<path d="M 3.277344 0 L 2.503906 0 L 2.503906 -4.929688 C 2.316406 -4.75 2.074219 -4.574219 1.773438 -4.394531 C 1.46875 -4.214844 1.195312 -4.082031 0.957031 -3.996094 L 0.957031 -4.742188 C 1.386719 -4.941406 1.765625 -5.1875 2.089844 -5.480469 C 2.414062 -5.769531 2.644531 -6.050781 2.78125 -6.324219 L 3.277344 -6.324219 Z M 3.277344 0 "/>
</g>
<g id="glyph-0-1">
<path d="M 0.367188 -3.105469 C 0.363281 -3.847656 0.4375 -4.445312 0.59375 -4.902344 C 0.742188 -5.355469 0.972656 -5.707031 1.277344 -5.953125 C 1.578125 -6.199219 1.957031 -6.320312 2.417969 -6.324219 C 2.753906 -6.320312 3.050781 -6.253906 3.308594 -6.121094 C 3.5625 -5.984375 3.773438 -5.789062 3.9375 -5.53125 C 4.101562 -5.273438 4.230469 -4.960938 4.328125 -4.59375 C 4.421875 -4.226562 4.46875 -3.730469 4.472656 -3.105469 C 4.46875 -2.367188 4.394531 -1.769531 4.242188 -1.316406 C 4.089844 -0.859375 3.863281 -0.507812 3.5625 -0.261719 C 3.257812 -0.015625 2.875 0.105469 2.417969 0.109375 C 1.808594 0.105469 1.332031 -0.109375 0.988281 -0.546875 C 0.570312 -1.066406 0.363281 -1.921875 0.367188 -3.105469 Z M 1.160156 -3.105469 C 1.160156 -2.070312 1.28125 -1.378906 1.523438 -1.039062 C 1.765625 -0.695312 2.0625 -0.527344 2.417969 -0.527344 C 2.773438 -0.527344 3.074219 -0.699219 3.316406 -1.042969 C 3.558594 -1.386719 3.679688 -2.074219 3.679688 -3.105469 C 3.679688 -4.144531 3.558594 -4.832031 3.316406 -5.171875 C 3.074219 -5.511719 2.769531 -5.683594 2.410156 -5.683594 C 2.050781 -5.683594 1.769531 -5.53125 1.558594 -5.234375 C 1.292969 -4.84375 1.160156 -4.136719 1.160156 -3.105469 Z M 1.160156 -3.105469 "/>
</g>
<g id="glyph-0-2">
<path d="M 4.429688 -0.742188 L 4.429688 0 L 0.265625 0 C 0.257812 -0.1875 0.289062 -0.367188 0.355469 -0.539062 C 0.460938 -0.820312 0.628906 -1.097656 0.863281 -1.375 C 1.09375 -1.648438 1.433594 -1.964844 1.878906 -2.328125 C 2.5625 -2.886719 3.023438 -3.332031 3.265625 -3.664062 C 3.5 -3.988281 3.621094 -4.300781 3.625 -4.59375 C 3.621094 -4.898438 3.511719 -5.15625 3.296875 -5.367188 C 3.074219 -5.578125 2.789062 -5.683594 2.441406 -5.683594 C 2.066406 -5.683594 1.769531 -5.570312 1.546875 -5.347656 C 1.320312 -5.125 1.207031 -4.816406 1.207031 -4.421875 L 0.414062 -4.503906 C 0.464844 -5.09375 0.667969 -5.542969 1.027344 -5.855469 C 1.378906 -6.164062 1.855469 -6.320312 2.457031 -6.324219 C 3.058594 -6.320312 3.539062 -6.152344 3.890625 -5.820312 C 4.242188 -5.484375 4.417969 -5.070312 4.421875 -4.578125 C 4.417969 -4.320312 4.367188 -4.074219 4.265625 -3.832031 C 4.164062 -3.589844 3.992188 -3.332031 3.753906 -3.0625 C 3.511719 -2.792969 3.113281 -2.425781 2.5625 -1.957031 C 2.09375 -1.566406 1.796875 -1.300781 1.664062 -1.160156 C 1.53125 -1.019531 1.421875 -0.878906 1.339844 -0.742188 Z M 4.429688 -0.742188 "/>
</g>
<g id="glyph-1-0">
<path d="M 4.445312 -0.703125 C 4.085938 -0.398438 3.742188 -0.183594 3.414062 -0.0585938 C 3.082031 0.0664062 2.726562 0.128906 2.347656 0.128906 C 1.71875 0.128906 1.238281 -0.0234375 0.902344 -0.328125 C 0.566406 -0.632812 0.398438 -1.023438 0.398438 -1.503906 C 0.398438 -1.78125 0.460938 -2.035156 0.585938 -2.269531 C 0.710938 -2.496094 0.875 -2.683594 1.085938 -2.824219 C 1.289062 -2.964844 1.523438 -3.070312 1.78125 -3.140625 C 1.96875 -3.191406 2.253906 -3.238281 2.640625 -3.289062 C 3.417969 -3.375 3.992188 -3.488281 4.367188 -3.621094 C 4.367188 -3.753906 4.371094 -3.835938 4.371094 -3.871094 C 4.371094 -4.265625 4.277344 -4.542969 4.097656 -4.703125 C 3.847656 -4.917969 3.480469 -5.027344 2.996094 -5.03125 C 2.539062 -5.027344 2.203125 -4.949219 1.988281 -4.792969 C 1.769531 -4.632812 1.609375 -4.351562 1.507812 -3.949219 L 0.5625 -4.078125 C 0.648438 -4.480469 0.789062 -4.804688 0.988281 -5.054688 C 1.183594 -5.300781 1.46875 -5.492188 1.84375 -5.628906 C 2.214844 -5.761719 2.644531 -5.828125 3.136719 -5.832031 C 3.621094 -5.828125 4.019531 -5.773438 4.324219 -5.660156 C 4.628906 -5.542969 4.851562 -5.398438 4.996094 -5.226562 C 5.136719 -5.054688 5.238281 -4.835938 5.296875 -4.570312 C 5.328125 -4.40625 5.34375 -4.109375 5.34375 -3.679688 L 5.34375 -2.390625 C 5.34375 -1.492188 5.363281 -0.921875 5.40625 -0.683594 C 5.445312 -0.445312 5.527344 -0.21875 5.648438 0 L 4.640625 0 C 4.539062 -0.199219 4.472656 -0.433594 4.445312 -0.703125 Z M 4.367188 -2.863281 C 4.011719 -2.71875 3.488281 -2.597656 2.789062 -2.496094 C 2.390625 -2.4375 2.105469 -2.371094 1.941406 -2.300781 C 1.773438 -2.226562 1.648438 -2.121094 1.5625 -1.988281 C 1.472656 -1.847656 1.429688 -1.695312 1.429688 -1.53125 C 1.429688 -1.269531 1.527344 -1.054688 1.722656 -0.886719 C 1.917969 -0.710938 2.203125 -0.625 2.578125 -0.628906 C 2.949219 -0.625 3.277344 -0.707031 3.570312 -0.871094 C 3.859375 -1.03125 4.074219 -1.253906 4.210938 -1.542969 C 4.3125 -1.753906 4.363281 -2.078125 4.367188 -2.507812 Z M 4.367188 -2.863281 "/>
</g>
<g id="glyph-1-1">
<path d="M 0.339844 -1.703125 L 1.292969 -1.851562 C 1.34375 -1.46875 1.492188 -1.171875 1.742188 -0.96875 C 1.984375 -0.761719 2.328125 -0.660156 2.773438 -0.664062 C 3.210938 -0.660156 3.539062 -0.75 3.757812 -0.933594 C 3.96875 -1.113281 4.078125 -1.328125 4.082031 -1.574219 C 4.078125 -1.789062 3.984375 -1.960938 3.796875 -2.089844 C 3.664062 -2.171875 3.332031 -2.28125 2.808594 -2.417969 C 2.097656 -2.59375 1.605469 -2.75 1.332031 -2.882812 C 1.054688 -3.011719 0.847656 -3.191406 0.710938 -3.421875 C 0.566406 -3.652344 0.496094 -3.90625 0.5 -4.1875 C 0.496094 -4.441406 0.554688 -4.675781 0.671875 -4.894531 C 0.785156 -5.105469 0.945312 -5.289062 1.148438 -5.4375 C 1.296875 -5.546875 1.5 -5.636719 1.761719 -5.714844 C 2.019531 -5.789062 2.300781 -5.828125 2.601562 -5.832031 C 3.046875 -5.828125 3.4375 -5.765625 3.777344 -5.636719 C 4.113281 -5.507812 4.363281 -5.332031 4.527344 -5.113281 C 4.6875 -4.890625 4.796875 -4.597656 4.859375 -4.234375 L 3.914062 -4.101562 C 3.871094 -4.394531 3.746094 -4.621094 3.542969 -4.789062 C 3.335938 -4.953125 3.042969 -5.039062 2.667969 -5.039062 C 2.222656 -5.039062 1.90625 -4.964844 1.71875 -4.816406 C 1.523438 -4.667969 1.429688 -4.496094 1.433594 -4.300781 C 1.429688 -4.175781 1.46875 -4.0625 1.550781 -3.964844 C 1.628906 -3.859375 1.753906 -3.773438 1.921875 -3.707031 C 2.015625 -3.667969 2.300781 -3.585938 2.777344 -3.460938 C 3.460938 -3.273438 3.9375 -3.121094 4.207031 -3.007812 C 4.476562 -2.890625 4.6875 -2.722656 4.84375 -2.503906 C 4.996094 -2.277344 5.074219 -2.003906 5.074219 -1.675781 C 5.074219 -1.351562 4.980469 -1.046875 4.792969 -0.765625 C 4.605469 -0.480469 4.332031 -0.261719 3.980469 -0.105469 C 3.621094 0.0507812 3.222656 0.128906 2.777344 0.128906 C 2.035156 0.128906 1.46875 -0.0234375 1.082031 -0.332031 C 0.691406 -0.640625 0.445312 -1.097656 0.339844 -1.703125 Z M 0.339844 -1.703125 "/>
</g>
<g id="glyph-1-2">
<path d="M 1 0 L 1 -1.101562 L 2.101562 -1.101562 L 2.101562 0 Z M 1 0 "/>
</g>
<g id="glyph-1-3">
<path d="M 0.957031 0 L 0.957031 -4.953125 L 0.101562 -4.953125 L 0.101562 -5.703125 L 0.957031 -5.703125 L 0.957031 -6.3125 C 0.953125 -6.691406 0.988281 -6.976562 1.058594 -7.164062 C 1.148438 -7.410156 1.3125 -7.613281 1.550781 -7.773438 C 1.78125 -7.925781 2.109375 -8.003906 2.535156 -8.007812 C 2.804688 -8.003906 3.105469 -7.972656 3.4375 -7.910156 L 3.292969 -7.070312 C 3.089844 -7.101562 2.898438 -7.117188 2.722656 -7.121094 C 2.425781 -7.117188 2.21875 -7.054688 2.097656 -6.933594 C 1.976562 -6.804688 1.914062 -6.570312 1.917969 -6.230469 L 1.917969 -5.703125 L 3.03125 -5.703125 L 3.03125 -4.953125 L 1.917969 -4.953125 L 1.917969 0 Z M 0.957031 0 "/>
</g>
<g id="glyph-1-4">
<path d="M 4.445312 -2.089844 L 5.398438 -1.964844 C 5.289062 -1.308594 5.023438 -0.796875 4.597656 -0.425781 C 4.167969 -0.0546875 3.644531 0.128906 3.023438 0.128906 C 2.242188 0.128906 1.613281 -0.125 1.140625 -0.636719 C 0.664062 -1.144531 0.425781 -1.875 0.429688 -2.832031 C 0.425781 -3.441406 0.527344 -3.980469 0.734375 -4.445312 C 0.9375 -4.90625 1.25 -5.253906 1.667969 -5.484375 C 2.082031 -5.714844 2.535156 -5.828125 3.03125 -5.832031 C 3.644531 -5.828125 4.152344 -5.671875 4.546875 -5.363281 C 4.941406 -5.046875 5.191406 -4.601562 5.304688 -4.027344 L 4.367188 -3.882812 C 4.273438 -4.261719 4.117188 -4.550781 3.890625 -4.746094 C 3.664062 -4.941406 3.386719 -5.039062 3.066406 -5.039062 C 2.574219 -5.039062 2.179688 -4.863281 1.878906 -4.515625 C 1.570312 -4.164062 1.417969 -3.613281 1.421875 -2.859375 C 1.417969 -2.089844 1.566406 -1.53125 1.863281 -1.183594 C 2.15625 -0.835938 2.539062 -0.660156 3.011719 -0.664062 C 3.390625 -0.660156 3.707031 -0.777344 3.960938 -1.011719 C 4.214844 -1.242188 4.375 -1.601562 4.445312 -2.089844 Z M 4.445312 -2.089844 "/>
</g>
<g id="glyph-1-5">
<path d="M 2.835938 -0.863281 L 2.976562 -0.0117188 C 2.703125 0.0429688 2.457031 0.0703125 2.246094 0.0742188 C 1.890625 0.0703125 1.621094 0.0195312 1.429688 -0.0898438 C 1.234375 -0.199219 1.097656 -0.347656 1.019531 -0.527344 C 0.941406 -0.707031 0.902344 -1.085938 0.902344 -1.671875 L 0.902344 -4.953125 L 0.195312 -4.953125 L 0.195312 -5.703125 L 0.902344 -5.703125 L 0.902344 -7.117188 L 1.863281 -7.695312 L 1.863281 -5.703125 L 2.835938 -5.703125 L 2.835938 -4.953125 L 1.863281 -4.953125 L 1.863281 -1.617188 C 1.863281 -1.339844 1.878906 -1.160156 1.914062 -1.085938 C 1.945312 -1.003906 2 -0.941406 2.078125 -0.898438 C 2.152344 -0.847656 2.261719 -0.824219 2.410156 -0.828125 C 2.515625 -0.824219 2.660156 -0.835938 2.835938 -0.863281 Z M 2.835938 -0.863281 "/>
</g>
<g id="glyph-1-6">
<path d="M 0.367188 -2.851562 C 0.363281 -3.90625 0.65625 -4.6875 1.246094 -5.199219 C 1.734375 -5.617188 2.332031 -5.828125 3.039062 -5.832031 C 3.820312 -5.828125 4.460938 -5.574219 4.960938 -5.0625 C 5.457031 -4.546875 5.707031 -3.835938 5.710938 -2.933594 C 5.707031 -2.195312 5.597656 -1.617188 5.378906 -1.199219 C 5.15625 -0.777344 4.832031 -0.449219 4.414062 -0.21875 C 3.992188 0.015625 3.535156 0.128906 3.039062 0.128906 C 2.238281 0.128906 1.59375 -0.125 1.105469 -0.636719 C 0.609375 -1.148438 0.363281 -1.886719 0.367188 -2.851562 Z M 1.359375 -2.851562 C 1.359375 -2.121094 1.515625 -1.574219 1.835938 -1.210938 C 2.152344 -0.84375 2.554688 -0.660156 3.039062 -0.664062 C 3.515625 -0.660156 3.914062 -0.84375 4.234375 -1.210938 C 4.550781 -1.574219 4.710938 -2.132812 4.714844 -2.882812 C 4.710938 -3.585938 4.550781 -4.117188 4.234375 -4.484375 C 3.910156 -4.84375 3.511719 -5.027344 3.039062 -5.03125 C 2.554688 -5.027344 2.152344 -4.847656 1.835938 -4.488281 C 1.515625 -4.128906 1.359375 -3.582031 1.359375 -2.851562 Z M 1.359375 -2.851562 "/>
</g>
<g id="glyph-1-7">
<path d="M 0.714844 0 L 0.714844 -5.703125 L 1.585938 -5.703125 L 1.585938 -4.839844 C 1.804688 -5.242188 2.007812 -5.507812 2.199219 -5.636719 C 2.382812 -5.765625 2.589844 -5.828125 2.820312 -5.832031 C 3.140625 -5.828125 3.472656 -5.726562 3.8125 -5.523438 L 3.480469 -4.625 C 3.242188 -4.761719 3.003906 -4.832031 2.773438 -4.835938 C 2.554688 -4.832031 2.363281 -4.769531 2.199219 -4.644531 C 2.027344 -4.515625 1.910156 -4.339844 1.84375 -4.113281 C 1.730469 -3.769531 1.675781 -3.390625 1.679688 -2.984375 L 1.679688 0 Z M 0.714844 0 "/>
</g>
<g id="glyph-1-8">
<path d="M 2.574219 2.316406 C 2.035156 1.636719 1.585938 0.851562 1.21875 -0.046875 C 0.847656 -0.949219 0.660156 -1.882812 0.664062 -2.851562 C 0.660156 -3.699219 0.800781 -4.515625 1.078125 -5.300781 C 1.398438 -6.203125 1.894531 -7.105469 2.574219 -8.007812 L 3.265625 -8.007812 C 2.828125 -7.261719 2.542969 -6.730469 2.40625 -6.414062 C 2.183594 -5.917969 2.011719 -5.402344 1.890625 -4.867188 C 1.734375 -4.195312 1.65625 -3.523438 1.660156 -2.847656 C 1.65625 -1.121094 2.191406 0.597656 3.265625 2.316406 Z M 2.574219 2.316406 "/>
</g>
<g id="glyph-1-9">
<path d="M 2.851562 0 L 2.851562 -6.945312 L 0.257812 -6.945312 L 0.257812 -7.875 L 6.5 -7.875 L 6.5 -6.945312 L 3.894531 -6.945312 L 3.894531 0 Z M 2.851562 0 "/>
</g>
<g id="glyph-1-10">
<path d="M 0.683594 2.195312 L 0.574219 1.289062 C 0.785156 1.34375 0.96875 1.371094 1.128906 1.375 C 1.339844 1.371094 1.511719 1.335938 1.640625 1.265625 C 1.769531 1.195312 1.875 1.09375 1.960938 0.96875 C 2.019531 0.867188 2.117188 0.628906 2.257812 0.246094 C 2.269531 0.191406 2.300781 0.113281 2.34375 0.0117188 L 0.175781 -5.703125 L 1.21875 -5.703125 L 2.40625 -2.402344 C 2.558594 -1.980469 2.695312 -1.539062 2.820312 -1.078125 C 2.925781 -1.523438 3.058594 -1.957031 3.21875 -2.378906 L 4.4375 -5.703125 L 5.402344 -5.703125 L 3.234375 0.0976562 C 3 0.71875 2.816406 1.148438 2.691406 1.390625 C 2.515625 1.703125 2.320312 1.9375 2.097656 2.089844 C 1.875 2.238281 1.609375 2.3125 1.304688 2.316406 C 1.117188 2.3125 0.910156 2.273438 0.683594 2.195312 Z M 0.683594 2.195312 "/>
</g>
<g id="glyph-1-11">
<path d="M 0.726562 2.1875 L 0.726562 -5.703125 L 1.605469 -5.703125 L 1.605469 -4.960938 C 1.8125 -5.25 2.046875 -5.46875 2.308594 -5.613281 C 2.570312 -5.757812 2.886719 -5.828125 3.261719 -5.832031 C 3.746094 -5.828125 4.175781 -5.703125 4.550781 -5.457031 C 4.921875 -5.203125 5.203125 -4.851562 5.390625 -4.394531 C 5.578125 -3.9375 5.671875 -3.4375 5.675781 -2.894531 C 5.671875 -2.308594 5.566406 -1.78125 5.359375 -1.316406 C 5.148438 -0.847656 4.84375 -0.488281 4.449219 -0.242188 C 4.046875 0.0078125 3.628906 0.128906 3.191406 0.128906 C 2.867188 0.128906 2.578125 0.0625 2.320312 -0.0742188 C 2.0625 -0.210938 1.851562 -0.382812 1.691406 -0.589844 L 1.691406 2.1875 Z M 1.601562 -2.820312 C 1.597656 -2.082031 1.746094 -1.539062 2.046875 -1.191406 C 2.339844 -0.835938 2.699219 -0.660156 3.125 -0.664062 C 3.550781 -0.660156 3.917969 -0.84375 4.226562 -1.210938 C 4.53125 -1.574219 4.6875 -2.136719 4.6875 -2.898438 C 4.6875 -3.625 4.535156 -4.167969 4.238281 -4.53125 C 3.9375 -4.890625 3.582031 -5.074219 3.167969 -5.074219 C 2.753906 -5.074219 2.390625 -4.878906 2.074219 -4.496094 C 1.757812 -4.109375 1.597656 -3.550781 1.601562 -2.820312 Z M 1.601562 -2.820312 "/>
</g>
<g id="glyph-1-12">
<path d="M 4.628906 -1.835938 L 5.628906 -1.714844 C 5.46875 -1.125 5.175781 -0.671875 4.75 -0.351562 C 4.324219 -0.03125 3.78125 0.128906 3.121094 0.128906 C 2.28125 0.128906 1.617188 -0.125 1.132812 -0.640625 C 0.640625 -1.152344 0.398438 -1.875 0.402344 -2.804688 C 0.398438 -3.761719 0.644531 -4.503906 1.144531 -5.035156 C 1.636719 -5.5625 2.277344 -5.828125 3.066406 -5.832031 C 3.824219 -5.828125 4.449219 -5.570312 4.933594 -5.050781 C 5.417969 -4.53125 5.660156 -3.800781 5.660156 -2.863281 C 5.660156 -2.804688 5.65625 -2.71875 5.65625 -2.605469 L 1.402344 -2.605469 C 1.433594 -1.976562 1.613281 -1.496094 1.933594 -1.164062 C 2.25 -0.828125 2.644531 -0.660156 3.125 -0.664062 C 3.476562 -0.660156 3.78125 -0.753906 4.03125 -0.945312 C 4.28125 -1.128906 4.480469 -1.425781 4.628906 -1.835938 Z M 1.457031 -3.398438 L 4.640625 -3.398438 C 4.597656 -3.878906 4.472656 -4.238281 4.273438 -4.480469 C 3.960938 -4.851562 3.5625 -5.039062 3.078125 -5.039062 C 2.628906 -5.039062 2.257812 -4.890625 1.957031 -4.59375 C 1.652344 -4.296875 1.484375 -3.898438 1.457031 -3.398438 Z M 1.457031 -3.398438 "/>
</g>
<g id="glyph-1-13">
<path d="M -0.167969 2.1875 L -0.167969 1.488281 L 6.242188 1.488281 L 6.242188 2.1875 Z M -0.167969 2.1875 "/>
</g>
<g id="glyph-1-14">
<path d="M 0.730469 -6.761719 L 0.730469 -7.875 L 1.695312 -7.875 L 1.695312 -6.761719 Z M 0.730469 0 L 0.730469 -5.703125 L 1.695312 -5.703125 L 1.695312 0 Z M 0.730469 0 "/>
</g>
<g id="glyph-1-15">
<path d="M 0.703125 0 L 0.703125 -7.875 L 1.671875 -7.875 L 1.671875 0 Z M 0.703125 0 "/>
</g>
<g id="glyph-1-16">
<path d="M 4.425781 0 L 4.425781 -0.71875 C 4.058594 -0.152344 3.527344 0.128906 2.832031 0.128906 C 2.371094 0.128906 1.953125 0.00390625 1.574219 -0.246094 C 1.191406 -0.496094 0.894531 -0.84375 0.6875 -1.296875 C 0.476562 -1.742188 0.375 -2.261719 0.375 -2.847656 C 0.375 -3.414062 0.46875 -3.929688 0.660156 -4.394531 C 0.847656 -4.859375 1.132812 -5.214844 1.515625 -5.460938 C 1.894531 -5.707031 2.320312 -5.828125 2.789062 -5.832031 C 3.132812 -5.828125 3.4375 -5.757812 3.707031 -5.613281 C 3.972656 -5.46875 4.191406 -5.277344 4.359375 -5.046875 L 4.359375 -7.875 L 5.324219 -7.875 L 5.324219 0 Z M 1.371094 -2.847656 C 1.371094 -2.113281 1.523438 -1.566406 1.832031 -1.207031 C 2.136719 -0.84375 2.5 -0.660156 2.921875 -0.664062 C 3.339844 -0.660156 3.699219 -0.835938 3.996094 -1.183594 C 4.292969 -1.527344 4.441406 -2.054688 4.441406 -2.765625 C 4.441406 -3.546875 4.289062 -4.117188 3.988281 -4.484375 C 3.6875 -4.84375 3.316406 -5.027344 2.878906 -5.03125 C 2.445312 -5.027344 2.085938 -4.851562 1.800781 -4.503906 C 1.511719 -4.152344 1.371094 -3.601562 1.371094 -2.847656 Z M 1.371094 -2.847656 "/>
</g>
<g id="glyph-1-17">
<path d="M 1.359375 2.316406 L 0.664062 2.316406 C 1.734375 0.597656 2.273438 -1.121094 2.273438 -2.847656 C 2.273438 -3.519531 2.195312 -4.1875 2.039062 -4.851562 C 1.917969 -5.386719 1.746094 -5.902344 1.53125 -6.398438 C 1.386719 -6.71875 1.097656 -7.253906 0.664062 -8.007812 L 1.359375 -8.007812 C 2.03125 -7.105469 2.527344 -6.203125 2.851562 -5.300781 C 3.125 -4.515625 3.261719 -3.699219 3.265625 -2.851562 C 3.261719 -1.882812 3.078125 -0.949219 2.707031 -0.046875 C 2.335938 0.851562 1.886719 1.636719 1.359375 2.316406 Z M 1.359375 2.316406 "/>
</g>
<g id="glyph-2-0">
<path d="M 0 -0.714844 L -5.703125 -0.714844 L -5.703125 -1.585938 L -4.839844 -1.585938 C -5.242188 -1.804688 -5.507812 -2.007812 -5.636719 -2.199219 C -5.765625 -2.382812 -5.828125 -2.589844 -5.832031 -2.820312 C -5.828125 -3.140625 -5.726562 -3.472656 -5.523438 -3.8125 L -4.625 -3.480469 C -4.761719 -3.242188 -4.832031 -3.003906 -4.835938 -2.773438 C -4.832031 -2.554688 -4.769531 -2.363281 -4.644531 -2.199219 C -4.515625 -2.027344 -4.339844 -1.910156 -4.113281 -1.84375 C -3.769531 -1.730469 -3.390625 -1.675781 -2.984375 -1.679688 L 0 -1.679688 Z M 0 -0.714844 "/>
</g>
<g id="glyph-2-1">
<path d="M -6.761719 -0.730469 L -7.875 -0.730469 L -7.875 -1.699219 L -6.761719 -1.699219 Z M 0 -0.730469 L -5.703125 -0.730469 L -5.703125 -1.699219 L 0 -1.695312 Z M 0 -0.730469 "/>
</g>
<g id="glyph-2-2">
<path d="M -2.089844 -4.445312 L -1.964844 -5.398438 C -1.308594 -5.289062 -0.796875 -5.023438 -0.425781 -4.597656 C -0.0546875 -4.167969 0.128906 -3.644531 0.128906 -3.023438 C 0.128906 -2.242188 -0.125 -1.613281 -0.636719 -1.140625 C -1.144531 -0.664062 -1.875 -0.425781 -2.832031 -0.429688 C -3.441406 -0.425781 -3.980469 -0.527344 -4.445312 -0.734375 C -4.90625 -0.9375 -5.253906 -1.25 -5.484375 -1.667969 C -5.714844 -2.082031 -5.828125 -2.535156 -5.832031 -3.03125 C -5.828125 -3.644531 -5.671875 -4.152344 -5.363281 -4.546875 C -5.046875 -4.941406 -4.601562 -5.191406 -4.027344 -5.304688 L -3.882812 -4.367188 C -4.261719 -4.273438 -4.550781 -4.117188 -4.746094 -3.890625 C -4.941406 -3.664062 -5.039062 -3.386719 -5.039062 -3.066406 C -5.039062 -2.574219 -4.863281 -2.179688 -4.515625 -1.878906 C -4.164062 -1.570312 -3.613281 -1.417969 -2.859375 -1.421875 C -2.089844 -1.417969 -1.53125 -1.566406 -1.183594 -1.863281 C -0.835938 -2.15625 -0.660156 -2.539062 -0.664062 -3.011719 C -0.660156 -3.390625 -0.777344 -3.707031 -1.011719 -3.960938 C -1.242188 -4.214844 -1.601562 -4.375 -2.089844 -4.445312 Z M -2.089844 -4.445312 "/>
</g>
<g id="glyph-2-3">
<path d="M 0 -0.726562 L -7.875 -0.726562 L -7.875 -1.691406 L -5.046875 -1.691406 C -5.566406 -2.140625 -5.828125 -2.710938 -5.832031 -3.398438 C -5.828125 -3.820312 -5.746094 -4.1875 -5.582031 -4.5 C -5.414062 -4.8125 -5.183594 -5.035156 -4.890625 -5.167969 C -4.597656 -5.300781 -4.171875 -5.367188 -3.613281 -5.371094 L 0 -5.371094 L 0 -4.40625 L -3.613281 -4.40625 C -4.09375 -4.40625 -4.445312 -4.300781 -4.667969 -4.089844 C -4.886719 -3.878906 -4.996094 -3.582031 -5 -3.203125 C -4.996094 -2.914062 -4.921875 -2.644531 -4.777344 -2.394531 C -4.625 -2.140625 -4.425781 -1.960938 -4.171875 -1.851562 C -3.917969 -1.742188 -3.566406 -1.6875 -3.121094 -1.691406 L 0 -1.691406 Z M 0 -0.726562 "/>
</g>
<g id="glyph-2-4">
<path d="M 0 -0.726562 L -5.703125 -0.726562 L -5.703125 -1.59375 L -4.894531 -1.59375 C -5.515625 -2.011719 -5.828125 -2.617188 -5.832031 -3.410156 C -5.828125 -3.753906 -5.765625 -4.066406 -5.644531 -4.355469 C -5.519531 -4.640625 -5.359375 -4.859375 -5.160156 -5.003906 C -4.957031 -5.144531 -4.71875 -5.242188 -4.445312 -5.304688 C -4.265625 -5.335938 -3.953125 -5.355469 -3.507812 -5.359375 L 0 -5.359375 L 0 -4.394531 L -3.46875 -4.394531 C -3.863281 -4.394531 -4.15625 -4.355469 -4.351562 -4.28125 C -4.542969 -4.203125 -4.699219 -4.070312 -4.820312 -3.878906 C -4.933594 -3.6875 -4.992188 -3.460938 -4.996094 -3.207031 C -4.992188 -2.792969 -4.859375 -2.4375 -4.601562 -2.140625 C -4.335938 -1.835938 -3.84375 -1.6875 -3.117188 -1.691406 L 0 -1.691406 Z M 0 -0.726562 "/>
</g>
<g id="glyph-2-5">
<path d="M -1.835938 -4.628906 L -1.714844 -5.628906 C -1.125 -5.46875 -0.671875 -5.175781 -0.351562 -4.75 C -0.03125 -4.324219 0.128906 -3.78125 0.128906 -3.121094 C 0.128906 -2.28125 -0.125 -1.617188 -0.640625 -1.132812 C -1.152344 -0.640625 -1.875 -0.398438 -2.804688 -0.402344 C -3.761719 -0.398438 -4.503906 -0.644531 -5.035156 -1.144531 C -5.5625 -1.636719 -5.828125 -2.277344 -5.832031 -3.066406 C -5.828125 -3.824219 -5.570312 -4.449219 -5.050781 -4.933594 C -4.53125 -5.417969 -3.800781 -5.660156 -2.863281 -5.660156 C -2.804688 -5.660156 -2.71875 -5.65625 -2.605469 -5.65625 L -2.605469 -1.402344 C -1.976562 -1.433594 -1.496094 -1.613281 -1.164062 -1.933594 C -0.828125 -2.25 -0.660156 -2.644531 -0.664062 -3.125 C -0.660156 -3.476562 -0.753906 -3.78125 -0.941406 -4.03125 C -1.125 -4.28125 -1.421875 -4.480469 -1.835938 -4.628906 Z M -3.398438 -1.457031 L -3.398438 -4.640625 C -3.878906 -4.597656 -4.238281 -4.472656 -4.480469 -4.273438 C -4.851562 -3.960938 -5.039062 -3.5625 -5.039062 -3.078125 C -5.039062 -2.628906 -4.890625 -2.257812 -4.59375 -1.957031 C -4.296875 -1.652344 -3.898438 -1.484375 -3.398438 -1.457031 Z M -3.398438 -1.457031 "/>
</g>
<g id="glyph-2-6">
<path d="M -1.703125 -0.339844 L -1.851562 -1.292969 C -1.46875 -1.34375 -1.171875 -1.492188 -0.96875 -1.742188 C -0.761719 -1.984375 -0.660156 -2.328125 -0.664062 -2.773438 C -0.660156 -3.210938 -0.75 -3.539062 -0.933594 -3.757812 C -1.113281 -3.96875 -1.328125 -4.078125 -1.574219 -4.082031 C -1.789062 -4.078125 -1.960938 -3.984375 -2.089844 -3.796875 C -2.171875 -3.664062 -2.28125 -3.332031 -2.417969 -2.808594 C -2.59375 -2.097656 -2.75 -1.609375 -2.882812 -1.335938 C -3.011719 -1.0625 -3.191406 -0.851562 -3.421875 -0.710938 C -3.652344 -0.566406 -3.90625 -0.496094 -4.1875 -0.5 C -4.441406 -0.496094 -4.675781 -0.554688 -4.894531 -0.671875 C -5.105469 -0.785156 -5.289062 -0.945312 -5.4375 -1.148438 C -5.546875 -1.296875 -5.636719 -1.5 -5.714844 -1.761719 C -5.789062 -2.019531 -5.828125 -2.300781 -5.832031 -2.601562 C -5.828125 -3.046875 -5.765625 -3.4375 -5.636719 -3.777344 C -5.507812 -4.113281 -5.332031 -4.363281 -5.113281 -4.527344 C -4.890625 -4.6875 -4.597656 -4.796875 -4.234375 -4.859375 L -4.101562 -3.914062 C -4.394531 -3.871094 -4.621094 -3.746094 -4.789062 -3.542969 C -4.953125 -3.335938 -5.039062 -3.042969 -5.039062 -2.667969 C -5.039062 -2.222656 -4.964844 -1.90625 -4.816406 -1.71875 C -4.667969 -1.523438 -4.496094 -1.429688 -4.300781 -1.433594 C -4.175781 -1.429688 -4.0625 -1.46875 -3.964844 -1.550781 C -3.859375 -1.628906 -3.773438 -1.753906 -3.707031 -1.921875 C -3.667969 -2.015625 -3.585938 -2.300781 -3.460938 -2.777344 C -3.273438 -3.460938 -3.121094 -3.9375 -3.007812 -4.207031 C -2.890625 -4.476562 -2.722656 -4.6875 -2.5 -4.84375 C -2.277344 -4.996094 -2.003906 -5.074219 -1.675781 -5.074219 C -1.351562 -5.074219 -1.046875 -4.980469 -0.765625 -4.792969 C -0.480469 -4.605469 -0.261719 -4.332031 -0.105469 -3.980469 C 0.0507812 -3.621094 0.128906 -3.222656 0.128906 -2.777344 C 0.128906 -2.035156 -0.0234375 -1.46875 -0.332031 -1.082031 C -0.640625 -0.691406 -1.097656 -0.445312 -1.703125 -0.339844 Z M -1.703125 -0.339844 "/>
</g>
<g id="glyph-2-7">
<path d="M 2.1875 0.167969 L 1.488281 0.167969 L 1.488281 -6.242188 L 2.1875 -6.242188 Z M 2.1875 0.167969 "/>
</g>
<g id="glyph-2-8">
<path d="M 0 -1.777344 L -5.703125 -0.03125 L -5.703125 -1.03125 L -2.410156 -1.9375 L -1.1875 -2.277344 C -1.246094 -2.289062 -1.636719 -2.386719 -2.363281 -2.574219 L -5.703125 -3.480469 L -5.703125 -4.472656 L -2.394531 -5.328125 L -1.304688 -5.613281 L -2.40625 -5.941406 L -5.703125 -6.917969 L -5.703125 -7.859375 L 0 -6.074219 L 0 -5.070312 L -3.414062 -4.164062 L -4.386719 -3.941406 L 0 -2.789062 Z M 0 -1.777344 "/>
</g>
<g id="glyph-2-9">
<path d="M 0 -0.703125 L -7.875 -0.703125 L -7.875 -1.671875 L 0 -1.671875 Z M 0 -0.703125 "/>
</g>
<g id="glyph-2-10">
<path d="M 0 -4.425781 L -0.71875 -4.425781 C -0.152344 -4.058594 0.128906 -3.527344 0.128906 -2.832031 C 0.128906 -2.371094 0.00390625 -1.953125 -0.246094 -1.574219 C -0.496094 -1.191406 -0.84375 -0.894531 -1.296875 -0.6875 C -1.742188 -0.476562 -2.261719 -0.375 -2.847656 -0.375 C -3.414062 -0.375 -3.929688 -0.46875 -4.394531 -0.660156 C -4.859375 -0.847656 -5.214844 -1.132812 -5.460938 -1.515625 C -5.707031 -1.894531 -5.828125 -2.320312 -5.832031 -2.789062 C -5.828125 -3.132812 -5.757812 -3.4375 -5.613281 -3.707031 C -5.46875 -3.972656 -5.277344 -4.191406 -5.046875 -4.359375 L -7.875 -4.363281 L -7.875 -5.324219 L 0 -5.324219 Z M -2.847656 -1.371094 C -2.113281 -1.371094 -1.566406 -1.523438 -1.207031 -1.832031 C -0.84375 -2.136719 -0.660156 -2.5 -0.664062 -2.921875 C -0.660156 -3.339844 -0.835938 -3.699219 -1.183594 -3.996094 C -1.527344 -4.292969 -2.054688 -4.441406 -2.765625 -4.441406 C -3.546875 -4.441406 -4.117188 -4.289062 -4.484375 -3.988281 C -4.84375 -3.6875 -5.027344 -3.316406 -5.03125 -2.878906 C -5.027344 -2.445312 -4.851562 -2.085938 -4.503906 -1.800781 C -4.152344 -1.511719 -3.601562 -1.371094 -2.847656 -1.371094 Z M -2.847656 -1.371094 "/>
</g>
</g>
<clipPath id="clip-0">
<path clip-rule="nonzero" d="M 33.773438 5.480469 L 459.519531 5.480469 L 459.519531 285.726562 L 33.773438 285.726562 Z M 33.773438 5.480469 "/>
</clipPath>
<clipPath id="clip-1">
<path clip-rule="nonzero" d="M 33.773438 243 L 459.519531 243 L 459.519531 244 L 33.773438 244 Z M 33.773438 243 "/>
</clipPath>
<clipPath id="clip-2">
<path clip-rule="nonzero" d="M 33.773438 145 L 459.519531 145 L 459.519531 146 L 33.773438 146 Z M 33.773438 145 "/>
</clipPath>
<clipPath id="clip-3">
<path clip-rule="nonzero" d="M 33.773438 47 L 459.519531 47 L 459.519531 48 L 33.773438 48 Z M 33.773438 47 "/>
</clipPath>
<clipPath id="clip-4">
<path clip-rule="nonzero" d="M 33.773438 194 L 459.519531 194 L 459.519531 196 L 33.773438 196 Z M 33.773438 194 "/>
</clipPath>
<clipPath id="clip-5">
<path clip-rule="nonzero" d="M 33.773438 96 L 459.519531 96 L 459.519531 98 L 33.773438 98 Z M 33.773438 96 "/>
</clipPath>
<clipPath id="clip-6">
<path clip-rule="nonzero" d="M 149 5.480469 L 151 5.480469 L 151 285.726562 L 149 285.726562 Z M 149 5.480469 "/>
</clipPath>
<clipPath id="clip-7">
<path clip-rule="nonzero" d="M 342 5.480469 L 344 5.480469 L 344 285.726562 L 342 285.726562 Z M 342 5.480469 "/>
</clipPath>
</defs>
<rect x="-46.5" y="-31.8" width="558" height="381.6" fill="rgb(100%, 100%, 100%)" fill-opacity="1"/>
<rect x="-46.5" y="-31.8" width="558" height="381.6" fill="rgb(100%, 100%, 100%)" fill-opacity="1"/>
<path fill="none" stroke-width="1.066978" stroke-linecap="round" stroke-linejoin="round" stroke="rgb(100%, 100%, 100%)" stroke-opacity="1" stroke-miterlimit="10" d="M 0 318 L 465 318 L 465 0 L 0 0 Z M 0 318 "/>
<g clip-path="url(#clip-0)">
<path fill-rule="nonzero" fill="rgb(92.156863%, 92.156863%, 92.156863%)" fill-opacity="1" d="M 33.773438 285.726562 L 459.519531 285.726562 L 459.519531 5.480469 L 33.773438 5.480469 Z M 33.773438 285.726562 "/>
</g>
<g clip-path="url(#clip-1)">
<path fill="none" stroke-width="0.533489" stroke-linecap="butt" stroke-linejoin="round" stroke="rgb(100%, 100%, 100%)" stroke-opacity="1" stroke-miterlimit="10" d="M 33.773438 243.589844 L 459.519531 243.589844 "/>
</g>
<g clip-path="url(#clip-2)">
<path fill="none" stroke-width="0.533489" stroke-linecap="butt" stroke-linejoin="round" stroke="rgb(100%, 100%, 100%)" stroke-opacity="1" stroke-miterlimit="10" d="M 33.773438 145.601562 L 459.519531 145.601562 "/>
</g>
<g clip-path="url(#clip-3)">
<path fill="none" stroke-width="0.533489" stroke-linecap="butt" stroke-linejoin="round" stroke="rgb(100%, 100%, 100%)" stroke-opacity="1" stroke-miterlimit="10" d="M 33.773438 47.613281 L 459.519531 47.613281 "/>
</g>
<g clip-path="url(#clip-4)">
<path fill="none" stroke-width="1.066978" stroke-linecap="butt" stroke-linejoin="round" stroke="rgb(100%, 100%, 100%)" stroke-opacity="1" stroke-miterlimit="10" d="M 33.773438 194.597656 L 459.519531 194.597656 "/>
</g>
<g clip-path="url(#clip-5)">
<path fill="none" stroke-width="1.066978" stroke-linecap="butt" stroke-linejoin="round" stroke="rgb(100%, 100%, 100%)" stroke-opacity="1" stroke-miterlimit="10" d="M 33.773438 96.609375 L 459.519531 96.609375 "/>
</g>
<g clip-path="url(#clip-6)">
<path fill="none" stroke-width="1.066978" stroke-linecap="butt" stroke-linejoin="round" stroke="rgb(100%, 100%, 100%)" stroke-opacity="1" stroke-miterlimit="10" d="M 149.886719 285.726562 L 149.886719 5.480469 "/>
</g>
<g clip-path="url(#clip-7)">
<path fill="none" stroke-width="1.066978" stroke-linecap="butt" stroke-linejoin="round" stroke="rgb(100%, 100%, 100%)" stroke-opacity="1" stroke-miterlimit="10" d="M 343.40625 285.726562 L 343.40625 5.480469 "/>
</g>
<path fill-rule="nonzero" fill="rgb(20%, 20%, 20%)" fill-opacity="1" stroke-width="0.708661" stroke-linecap="round" stroke-linejoin="round" stroke="rgb(20%, 20%, 20%)" stroke-opacity="1" stroke-miterlimit="10" d="M 151.84375 135.804688 C 151.84375 138.410156 147.933594 138.410156 147.933594 135.804688 C 147.933594 133.195312 151.84375 133.195312 151.84375 135.804688 "/>
<path fill="none" stroke-width="1.066978" stroke-linecap="butt" stroke-linejoin="round" stroke="rgb(20%, 20%, 20%)" stroke-opacity="1" stroke-miterlimit="10" d="M 149.886719 214.195312 L 149.886719 214.195312 "/>
<path fill="none" stroke-width="1.066978" stroke-linecap="butt" stroke-linejoin="round" stroke="rgb(20%, 20%, 20%)" stroke-opacity="1" stroke-miterlimit="10" d="M 149.886719 255.839844 L 149.886719 272.988281 "/>
<path fill-rule="nonzero" fill="rgb(100%, 100%, 100%)" fill-opacity="1" stroke-width="1.066978" stroke-linecap="butt" stroke-linejoin="miter" stroke="rgb(20%, 20%, 20%)" stroke-opacity="1" stroke-miterlimit="10" d="M 77.316406 214.195312 L 77.316406 255.839844 L 222.457031 255.839844 L 222.457031 214.195312 Z M 77.316406 214.195312 "/>
<path fill="none" stroke-width="2.133957" stroke-linecap="butt" stroke-linejoin="miter" stroke="rgb(20%, 20%, 20%)" stroke-opacity="1" stroke-miterlimit="10" d="M 77.316406 233.792969 L 222.457031 233.792969 "/>
<path fill="none" stroke-width="1.066978" stroke-linecap="butt" stroke-linejoin="round" stroke="rgb(20%, 20%, 20%)" stroke-opacity="1" stroke-miterlimit="10" d="M 343.40625 123.554688 L 343.40625 18.21875 "/>
<path fill="none" stroke-width="1.066978" stroke-linecap="butt" stroke-linejoin="round" stroke="rgb(20%, 20%, 20%)" stroke-opacity="1" stroke-miterlimit="10" d="M 343.40625 197.046875 L 343.40625 233.792969 "/>
<path fill-rule="nonzero" fill="rgb(100%, 100%, 100%)" fill-opacity="1" stroke-width="1.066978" stroke-linecap="butt" stroke-linejoin="miter" stroke="rgb(20%, 20%, 20%)" stroke-opacity="1" stroke-miterlimit="10" d="M 270.835938 123.554688 L 270.835938 197.046875 L 415.976562 197.046875 L 415.976562 123.554688 Z M 270.835938 123.554688 "/>
<path fill="none" stroke-width="2.133957" stroke-linecap="butt" stroke-linejoin="miter" stroke="rgb(20%, 20%, 20%)" stroke-opacity="1" stroke-miterlimit="10" d="M 270.835938 165.199219 L 415.976562 165.199219 "/>
<g fill="rgb(30.196078%, 30.196078%, 30.196078%)" fill-opacity="1">
<use xlink:href="#glyph-0-0" x="19.054688" y="197.746094"/>
<use xlink:href="#glyph-0-1" x="23.948828" y="197.746094"/>
</g>
<g fill="rgb(30.196078%, 30.196078%, 30.196078%)" fill-opacity="1">
<use xlink:href="#glyph-0-2" x="19.054688" y="99.757812"/>
<use xlink:href="#glyph-0-1" x="23.948828" y="99.757812"/>
</g>
<path fill="none" stroke-width="1.066978" stroke-linecap="butt" stroke-linejoin="round" stroke="rgb(20%, 20%, 20%)" stroke-opacity="1" stroke-miterlimit="10" d="M 31.035156 194.597656 L 33.773438 194.597656 "/>
<path fill="none" stroke-width="1.066978" stroke-linecap="butt" stroke-linejoin="round" stroke="rgb(20%, 20%, 20%)" stroke-opacity="1" stroke-miterlimit="10" d="M 31.035156 96.609375 L 33.773438 96.609375 "/>
<path fill="none" stroke-width="1.066978" stroke-linecap="butt" stroke-linejoin="round" stroke="rgb(20%, 20%, 20%)" stroke-opacity="1" stroke-miterlimit="10" d="M 149.886719 288.464844 L 149.886719 285.726562 "/>
<path fill="none" stroke-width="1.066978" stroke-linecap="butt" stroke-linejoin="round" stroke="rgb(20%, 20%, 20%)" stroke-opacity="1" stroke-miterlimit="10" d="M 343.40625 288.464844 L 343.40625 285.726562 "/>
<g fill="rgb(30.196078%, 30.196078%, 30.196078%)" fill-opacity="1">
<use xlink:href="#glyph-0-0" x="147.441406" y="296.957031"/>
</g>
<g fill="rgb(30.196078%, 30.196078%, 30.196078%)" fill-opacity="1">
<use xlink:href="#glyph-0-2" x="340.960938" y="296.957031"/>
</g>
<g fill="rgb(0%, 0%, 0%)" fill-opacity="1">
<use xlink:href="#glyph-1-0" x="196.515625" y="310.269531"/>
<use xlink:href="#glyph-1-1" x="202.633301" y="310.269531"/>
<use xlink:href="#glyph-1-2" x="208.133301" y="310.269531"/>
<use xlink:href="#glyph-1-3" x="211.189453" y="310.269531"/>
<use xlink:href="#glyph-1-0" x="214.245605" y="310.269531"/>
<use xlink:href="#glyph-1-4" x="220.363281" y="310.269531"/>
<use xlink:href="#glyph-1-5" x="225.863281" y="310.269531"/>
<use xlink:href="#glyph-1-6" x="228.919434" y="310.269531"/>
<use xlink:href="#glyph-1-7" x="235.037109" y="310.269531"/>
<use xlink:href="#glyph-1-8" x="238.700195" y="310.269531"/>
<use xlink:href="#glyph-1-9" x="242.363281" y="310.269531"/>
<use xlink:href="#glyph-1-10" x="249.08252" y="310.269531"/>
<use xlink:href="#glyph-1-11" x="254.58252" y="310.269531"/>
<use xlink:href="#glyph-1-12" x="260.700195" y="310.269531"/>
<use xlink:href="#glyph-1-13" x="266.817871" y="310.269531"/>
<use xlink:href="#glyph-1-3" x="272.935547" y="310.269531"/>
<use xlink:href="#glyph-1-14" x="275.991699" y="310.269531"/>
<use xlink:href="#glyph-1-12" x="278.435547" y="310.269531"/>
<use xlink:href="#glyph-1-15" x="284.553223" y="310.269531"/>
<use xlink:href="#glyph-1-16" x="286.99707" y="310.269531"/>
<use xlink:href="#glyph-1-17" x="293.114746" y="310.269531"/>
</g>
<g fill="rgb(0%, 0%, 0%)" fill-opacity="1">
<use xlink:href="#glyph-2-0" x="13.351562" y="178.613281"/>
<use xlink:href="#glyph-2-1" x="13.351562" y="174.950195"/>
<use xlink:href="#glyph-2-2" x="13.351562" y="172.506348"/>
<use xlink:href="#glyph-2-3" x="13.351562" y="167.006348"/>
<use xlink:href="#glyph-2-4" x="13.351562" y="160.888672"/>
<use xlink:href="#glyph-2-5" x="13.351563" y="154.770996"/>
<use xlink:href="#glyph-2-6" x="13.351563" y="148.65332"/>
<use xlink:href="#glyph-2-6" x="13.351563" y="143.15332"/>
<use xlink:href="#glyph-2-7" x="13.351563" y="137.65332"/>
<use xlink:href="#glyph-2-8" x="13.351563" y="131.535645"/>
<use xlink:href="#glyph-2-1" x="13.351563" y="123.591797"/>
<use xlink:href="#glyph-2-9" x="13.351563" y="121.147949"/>
<use xlink:href="#glyph-2-10" x="13.351563" y="118.704102"/>
</g>
</svg>
