<?xml version="1.0" encoding="UTF-8"?>
<svg xmlns="http://www.w3.org/2000/svg" xmlns:xlink="http://www.w3.org/1999/xlink" width="400pt" height="313pt" viewBox="0 0 400 313">
<defs>
<g>
<g id="glyph-0-0">
<path d="M 3.277344 0 L 2.503906 0 L 2.503906 -4.929688 C 2.316406 -4.75 2.074219 -4.574219 1.773438 -4.394531 C 1.46875 -4.214844 1.195312 -4.082031 0.957031 -3.996094 L 0.957031 -4.742188 C 1.386719 -4.941406 1.765625 -5.1875 2.089844 -5.480469 C 2.414062 -5.769531 2.644531 -6.050781 2.78125 -6.324219 L 3.277344 -6.324219 Z M 3.277344 0 "/>
</g>
<g id="glyph-0-1">
<path d="M 0.367188 -3.105469 C 0.363281 -3.847656 0.4375 -4.445312 0.59375 -4.902344 C 0.742188 -5.355469 0.972656 -5.707031 1.277344 -5.953125 C 1.578125 -6.199219 1.957031 -6.320312 2.417969 -6.324219 C 2.753906 -6.320312 3.050781 -6.253906 3.308594 -6.121094 C 3.5625 -5.984375 3.773438 -5.789062 3.9375 -5.53125 C 4.101562 -5.273438 4.230469 -4.960938 4.328125 -4.59375 C 4.421875 -4.226562 4.46875 -3.730469 4.472656 -3.105469 C 4.46875 -2.367188 4.394531 -1.769531 4.242188 -1.316406 C 4.089844 -0.859375 3.863281 -0.507812 3.5625 -0.261719 C 3.257812 -0.015625 2.875 0.105469 2.417969 0.109375 C 1.808594 0.105469 1.332031 -0.109375 0.988281 -0.546875 C 0.570312 -1.066406 0.363281 -1.921875 0.367188 -3.105469 Z M 1.160156 -3.105469 C 1.160156 -2.070312 1.28125 -1.378906 1.523438 -1.039062 C 1.765625 -0.695312 2.0625 -0.527344 2.417969 -0.527344 C 2.773438 -0.527344 3.074219 -0.699219 3.316406 -1.042969 C 3.558594 -1.386719 3.679688 -2.074219 3.679688 -3.105469 C 3.679688 -4.144531 3.558594 -4.832031 3.316406 -5.171875 C 3.074219 -5.511719 2.769531 -5.683594 2.410156 -5.683594 C 2.050781 -5.683594 1.769531 -5.53125 1.558594 -5.234375 C 1.292969 -4.84375 1.160156 -4.136719 1.160156 -3.105469 Z M 1.160156 -3.105469 "/>
</g>
<g id="glyph-0-2">
<path d="M 4.429688 -0.742188 L 4.429688 0 L 0.265625 0 C 0.257812 -0.1875 0.289062 -0.367188 0.355469 -0.539062 C 0.460938 -0.820312 0.628906 -1.097656 0.863281 -1.375 C 1.09375 -1.648438 1.433594 -1.964844 1.878906 -2.328125 C 2.5625 -2.886719 3.023438 -3.332031 3.265625 -3.664062 C 3.5 -3.988281 3.621094 -4.300781 3.625 -4.59375 C 3.621094 -4.898438 3.511719 -5.15625 3.296875 -5.367188 C 3.074219 -5.578125 2.789062 -5.683594 2.441406 -5.683594 C 2.066406 -5.683594 1.769531 -5.570312 1.546875 -5.347656 C 1.320312 -5.125 1.207031 -4.816406 1.207031 -4.421875 L 0.414062 -4.503906 C 0.464844 -5.09375 0.667969 -5.542969 1.027344 -5.855469 C 1.378906 -6.164062 1.855469 -6.320312 2.457031 -6.324219 C 3.058594 -6.320312 3.539062 -6.152344 3.890625 -5.820312 C 4.242188 -5.484375 4.417969 -5.070312 4.421875 -4.578125 C 4.417969 -4.320312 4.367188 -4.074219 4.265625 -3.832031 C 4.164062 -3.589844 3.992188 -3.332031 3.753906 -3.0625 C 3.511719 -2.792969 3.113281 -2.425781 2.5625 -1.957031 C 2.09375 -1.566406 1.796875 -1.300781 1.664062 -1.160156 C 1.53125 -1.019531 1.421875 -0.878906 1.339844 -0.742188 Z M 4.429688 -0.742188 "/>
</g>
<g id="glyph-0-3">
<path d="M 0.367188 -1.648438 L 1.175781 -1.71875 C 1.234375 -1.320312 1.375 -1.023438 1.59375 -0.824219 C 1.8125 -0.625 2.078125 -0.527344 2.390625 -0.527344 C 2.761719 -0.527344 3.074219 -0.667969 3.335938 -0.949219 C 3.589844 -1.230469 3.71875 -1.601562 3.722656 -2.066406 C 3.71875 -2.503906 3.59375 -2.851562 3.347656 -3.109375 C 3.097656 -3.363281 2.773438 -3.492188 2.375 -3.492188 C 2.125 -3.492188 1.902344 -3.433594 1.703125 -3.320312 C 1.5 -3.207031 1.34375 -3.0625 1.230469 -2.882812 L 0.503906 -2.976562 L 1.113281 -6.214844 L 4.246094 -6.214844 L 4.246094 -5.472656 L 1.730469 -5.472656 L 1.390625 -3.78125 C 1.765625 -4.039062 2.164062 -4.171875 2.582031 -4.175781 C 3.128906 -4.171875 3.59375 -3.980469 3.972656 -3.605469 C 4.351562 -3.222656 4.539062 -2.734375 4.542969 -2.136719 C 4.539062 -1.5625 4.375 -1.070312 4.042969 -0.65625 C 3.636719 -0.148438 3.085938 0.105469 2.390625 0.109375 C 1.816406 0.105469 1.347656 -0.0507812 0.984375 -0.371094 C 0.621094 -0.691406 0.414062 -1.117188 0.367188 -1.648438 Z M 0.367188 -1.648438 "/>
</g>
<g id="glyph-1-0">
<path d="M 4.445312 -0.703125 C 4.085938 -0.398438 3.742188 -0.183594 3.414062 -0.0585938 C 3.082031 0.0664062 2.726562 0.128906 2.347656 0.128906 C 1.71875 0.128906 1.238281 -0.0234375 0.902344 -0.328125 C 0.566406 -0.632812 0.398438 -1.023438 0.398438 -1.503906 C 0.398438 -1.78125 0.460938 -2.035156 0.585938 -2.269531 C 0.710938 -2.496094 0.875 -2.683594 1.085938 -2.824219 C 1.289062 -2.964844 1.523438 -3.070312 1.78125 -3.140625 C 1.96875 -3.191406 2.253906 -3.238281 2.640625 -3.289062 C 3.417969 -3.375 3.992188 -3.488281 4.367188 -3.621094 C 4.367188 -3.753906 4.371094 -3.835938 4.371094 -3.871094 C 4.371094 -4.265625 4.277344 -4.542969 4.097656 -4.703125 C 3.847656 -4.917969 3.480469 -5.027344 2.996094 -5.03125 C 2.539062 -5.027344 2.203125 -4.949219 1.988281 -4.792969 C 1.769531 -4.632812 1.609375 -4.351562 1.507812 -3.949219 L 0.5625 -4.078125 C 0.648438 -4.480469 0.789062 -4.804688 0.988281 -5.054688 C 1.183594 -5.300781 1.46875 -5.492188 1.84375 -5.628906 C 2.214844 -5.761719 2.644531 -5.828125 3.136719 -5.832031 C 3.621094 -5.828125 4.019531 -5.773438 4.324219 -5.660156 C 4.628906 -5.542969 4.851562 -5.398438 4.996094 -5.226562 C 5.136719 -5.054688 5.238281 -4.835938 5.296875 -4.570312 C 5.328125 -4.40625 5.34375 -4.109375 5.34375 -3.679688 L 5.34375 -2.390625 C 5.34375 -1.492188 5.363281 -0.921875 5.40625 -0.683594 C 5.445312 -0.445312 5.527344 -0.21875 5.648438 0 L 4.640625 0 C 4.539062 -0.199219 4.472656 -0.433594 4.445312 -0.703125 Z M 4.367188 -2.863281 C 4.011719 -2.71875 3.488281 -2.597656 2.789062 -2.496094 C 2.390625 -2.4375 2.105469 -2.371094 1.941406 -2.300781 C 1.773438 -2.226562 1.648438 -2.121094 1.5625 -1.988281 C 1.472656 -1.847656 1.429688 -1.695312 1.429688 -1.53125 C 1.429688 -1.269531 1.527344 -1.054688 1.722656 -0.886719 C 1.917969 -0.710938 2.203125 -0.625 2.578125 -0.628906 C 2.949219 -0.625 3.277344 -0.707031 3.570312 -0.871094 C 3.859375 -1.03125 4.074219 -1.253906 4.210938 -1.542969 C 4.3125 -1.753906 4.363281 -2.078125 4.367188 -2.507812 Z M 4.367188 -2.863281 "/>
</g>
<g id="glyph-1-1">
<path d="M 0.714844 0 L 0.714844 -5.703125 L 1.585938 -5.703125 L 1.585938 -4.839844 C 1.804688 -5.242188 2.007812 -5.507812 2.199219 -5.636719 C 2.382812 -5.765625 2.589844 -5.828125 2.820312 -5.832031 C 3.140625 -5.828125 3.472656 -5.726562 3.8125 -5.523438 L 3.480469 -4.625 C 3.242188 -4.761719 3.003906 -4.832031 2.773438 -4.835938 C 2.554688 -4.832031 2.363281 -4.769531 2.199219 -4.644531 C 2.027344 -4.515625 1.910156 -4.339844 1.84375 -4.113281 C 1.730469 -3.769531 1.675781 -3.390625 1.679688 -2.984375 L 1.679688 0 Z M 0.714844 0 "/>
</g>
<g id="glyph-1-2">
<path d="M 4.628906 -1.835938 L 5.628906 -1.714844 C 5.46875 -1.125 5.175781 -0.671875 4.75 -0.351562 C 4.324219 -0.03125 3.78125 0.128906 3.121094 0.128906 C 2.28125 0.128906 1.617188 -0.125 1.132812 -0.640625 C 0.640625 -1.152344 0.398438 -1.875 0.402344 -2.804688 C 0.398438 -3.761719 0.644531 -4.503906 1.144531 -5.035156 C 1.636719 -5.5625 2.277344 -5.828125 3.066406 -5.832031 C 3.824219 -5.828125 4.449219 -5.570312 4.933594 -5.050781 C 5.417969 -4.53125 5.660156 -3.800781 5.660156 -2.863281 C 5.660156 -2.804688 5.65625 -2.71875 5.65625 -2.605469 L 1.402344 -2.605469 C 1.433594 -1.976562 1.613281 -1.496094 1.933594 -1.164062 C 2.25 -0.828125 2.644531 -0.660156 3.125 -0.664062 C 3.476562 -0.660156 3.78125 -0.753906 4.03125 -0.945312 C 4.28125 -1.128906 4.480469 -1.425781 4.628906 -1.835938 Z M 1.457031 -3.398438 L 4.640625 -3.398438 C 4.597656 -3.878906 4.472656 -4.238281 4.273438 -4.480469 C 3.960938 -4.851562 3.5625 -5.039062 3.078125 -5.039062 C 2.628906 -5.039062 2.257812 -4.890625 1.957031 -4.59375 C 1.652344 -4.296875 1.484375 -3.898438 1.457031 -3.398438 Z M 1.457031 -3.398438 "/>
</g>
<g id="glyph-1-3">
<path d="M 0.339844 -1.703125 L 1.292969 -1.851562 C 1.34375 -1.46875 1.492188 -1.171875 1.742188 -0.96875 C 1.984375 -0.761719 2.328125 -0.660156 2.773438 -0.664062 C 3.210938 -0.660156 3.539062 -0.75 3.757812 -0.933594 C 3.96875 -1.113281 4.078125 -1.328125 4.082031 -1.574219 C 4.078125 -1.789062 3.984375 -1.960938 3.796875 -2.089844 C 3.664062 -2.171875 3.332031 -2.28125 2.808594 -2.417969 C 2.097656 -2.59375 1.605469 -2.75 1.332031 -2.882812 C 1.054688 -3.011719 0.847656 -3.191406 0.710938 -3.421875 C 0.566406 -3.652344 0.496094 -3.90625 0.5 -4.1875 C 0.496094 -4.441406 0.554688 -4.675781 0.671875 -4.894531 C 0.785156 -5.105469 0.945312 -5.289062 1.148438 -5.4375 C 1.296875 -5.546875 1.5 -5.636719 1.761719 -5.714844 C 2.019531 -5.789062 2.300781 -5.828125 2.601562 -5.832031 C 3.046875 -5.828125 3.4375 -5.765625 3.777344 -5.636719 C 4.113281 -5.507812 4.363281 -5.332031 4.527344 -5.113281 C 4.6875 -4.890625 4.796875 -4.597656 4.859375 -4.234375 L 3.914062 -4.101562 C 3.871094 -4.394531 3.746094 -4.621094 3.542969 -4.789062 C 3.335938 -4.953125 3.042969 -5.039062 2.667969 -5.039062 C 2.222656 -5.039062 1.90625 -4.964844 1.71875 -4.816406 C 1.523438 -4.667969 1.429688 -4.496094 1.433594 -4.300781 C 1.429688 -4.175781 1.46875 -4.0625 1.550781 -3.964844 C 1.628906 -3.859375 1.753906 -3.773438 1.921875 -3.707031 C 2.015625 -3.667969 2.300781 -3.585938 2.777344 -3.460938 C 3.460938 -3.273438 3.9375 -3.121094 4.207031 -3.007812 C 4.476562 -2.890625 4.6875 -2.722656 4.84375 -2.503906 C 4.996094 -2.277344 5.074219 -2.003906 5.074219 -1.675781 C 5.074219 -1.351562 4.980469 -1.046875 4.792969 -0.765625 C 4.605469 -0.480469 4.332031 -0.261719 3.980469 -0.105469 C 3.621094 0.0507812 3.222656 0.128906 2.777344 0.128906 C 2.035156 0.128906 1.46875 -0.0234375 1.082031 -0.332031 C 0.691406 -0.640625 0.445312 -1.097656 0.339844 -1.703125 Z M 0.339844 -1.703125 "/>
</g>
<g id="glyph-1-4">
<path d="M 1 0 L 1 -1.101562 L 2.101562 -1.101562 L 2.101562 0 Z M 1 0 "/>
</g>
<g id="glyph-1-5">
<path d="M 0.957031 0 L 0.957031 -4.953125 L 0.101562 -4.953125 L 0.101562 -5.703125 L 0.957031 -5.703125 L 0.957031 -6.3125 C 0.953125 -6.691406 0.988281 -6.976562 1.058594 -7.164062 C 1.148438 -7.410156 1.3125 -7.613281 1.550781 -7.773438 C 1.78125 -7.925781 2.109375 -8.003906 2.535156 -8.007812 C 2.804688 -8.003906 3.105469 -7.972656 3.4375 -7.910156 L 3.292969 -7.070312 C 3.089844 -7.101562 2.898438 -7.117188 2.722656 -7.121094 C 2.425781 -7.117188 2.21875 -7.054688 2.097656 -6.933594 C 1.976562 -6.804688 1.914062 -6.570312 1.917969 -6.230469 L 1.917969 -5.703125 L 3.03125 -5.703125 L 3.03125 -4.953125 L 1.917969 -4.953125 L 1.917969 0 Z M 0.957031 0 "/>
</g>
<g id="glyph-1-6">
<path d="M 4.445312 -2.089844 L 5.398438 -1.964844 C 5.289062 -1.308594 5.023438 -0.796875 4.597656 -0.425781 C 4.167969 -0.0546875 3.644531 0.128906 3.023438 0.128906 C 2.242188 0.128906 1.613281 -0.125 1.140625 -0.636719 C 0.664062 -1.144531 0.425781 -1.875 0.429688 -2.832031 C 0.425781 -3.441406 0.527344 -3.980469 0.734375 -4.445312 C 0.9375 -4.90625 1.25 -5.253906 1.667969 -5.484375 C 2.082031 -5.714844 2.535156 -5.828125 3.03125 -5.832031 C 3.644531 -5.828125 4.152344 -5.671875 4.546875 -5.363281 C 4.941406 -5.046875 5.191406 -4.601562 5.304688 -4.027344 L 4.367188 -3.882812 C 4.273438 -4.261719 4.117188 -4.550781 3.890625 -4.746094 C 3.664062 -4.941406 3.386719 -5.039062 3.066406 -5.039062 C 2.574219 -5.039062 2.179688 -4.863281 1.878906 -4.515625 C 1.570312 -4.164062 1.417969 -3.613281 1.421875 -2.859375 C 1.417969 -2.089844 1.566406 -1.53125 1.863281 -1.183594 C 2.15625 -0.835938 2.539062 -0.660156 3.011719 -0.664062 C 3.390625 -0.660156 3.707031 -0.777344 3.960938 -1.011719 C 4.214844 -1.242188 4.375 -1.601562 4.445312 -2.089844 Z M 4.445312 -2.089844 "/>
</g>
<g id="glyph-1-7">
<path d="M 2.835938 -0.863281 L 2.976562 -0.0117188 C 2.703125 0.0429688 2.457031 0.0703125 2.246094 0.0742188 C 1.890625 0.0703125 1.621094 0.0195312 1.429688 -0.0898438 C 1.234375 -0.199219 1.097656 -0.347656 1.019531 -0.527344 C 0.941406 -0.707031 0.902344 -1.085938 0.902344 -1.671875 L 0.902344 -4.953125 L 0.195312 -4.953125 L 0.195312 -5.703125 L 0.902344 -5.703125 L 0.902344 -7.117188 L 1.863281 -7.695312 L 1.863281 -5.703125 L 2.835938 -5.703125 L 2.835938 -4.953125 L 1.863281 -4.953125 L 1.863281 -1.617188 C 1.863281 -1.339844 1.878906 -1.160156 1.914062 -1.085938 C 1.945312 -1.003906 2 -0.941406 2.078125 -0.898438 C 2.152344 -0.847656 2.261719 -0.824219 2.410156 -0.828125 C 2.515625 -0.824219 2.660156 -0.835938 2.835938 -0.863281 Z M 2.835938 -0.863281 "/>
</g>
<g id="glyph-1-8">
<path d="M 0.367188 -2.851562 C 0.363281 -3.90625 0.65625 -4.6875 1.246094 -5.199219 C 1.734375 -5.617188 2.332031 -5.828125 3.039062 -5.832031 C 3.820312 -5.828125 4.460938 -5.574219 4.960938 -5.0625 C 5.457031 -4.546875 5.707031 -3.835938 5.710938 -2.933594 C 5.707031 -2.195312 5.597656 -1.617188 5.378906 -1.199219 C 5.15625 -0.777344 4.832031 -0.449219 4.414062 -0.21875 C 3.992188 0.015625 3.535156 0.128906 3.039062 0.128906 C 2.238281 0.128906 1.59375 -0.125 1.105469 -0.636719 C 0.609375 -1.148438 0.363281 -1.886719 0.367188 -2.851562 Z M 1.359375 -2.851562 C 1.359375 -2.121094 1.515625 -1.574219 1.835938 -1.210938 C 2.152344 -0.84375 2.554688 -0.660156 3.039062 -0.664062 C 3.515625 -0.660156 3.914062 -0.84375 4.234375 -1.210938 C 4.550781 -1.574219 4.710938 -2.132812 4.714844 -2.882812 C 4.710938 -3.585938 4.550781 -4.117188 4.234375 -4.484375 C 3.910156 -4.84375 3.511719 -5.027344 3.039062 -5.03125 C 2.554688 -5.027344 2.152344 -4.847656 1.835938 -4.488281 C 1.515625 -4.128906 1.359375 -3.582031 1.359375 -2.851562 Z M 1.359375 -2.851562 "/>
</g>
<g id="glyph-1-9">
<path d="M 2.574219 2.316406 C 2.035156 1.636719 1.585938 0.851562 1.21875 -0.046875 C 0.847656 -0.949219 0.660156 -1.882812 0.664062 -2.851562 C 0.660156 -3.699219 0.800781 -4.515625 1.078125 -5.300781 C 1.398438 -6.203125 1.894531 -7.105469 2.574219 -8.007812 L 3.265625 -8.007812 C 2.828125 -7.261719 2.542969 -6.730469 2.40625 -6.414062 C 2.183594 -5.917969 2.011719 -5.402344 1.890625 -4.867188 C 1.734375 -4.195312 1.65625 -3.523438 1.660156 -2.847656 C 1.65625 -1.121094 2.191406 0.597656 3.265625 2.316406 Z M 2.574219 2.316406 "/>
</g>
<g id="glyph-1-10">
<path d="M 2.851562 0 L 2.851562 -6.945312 L 0.257812 -6.945312 L 0.257812 -7.875 L 6.5 -7.875 L 6.5 -6.945312 L 3.894531 -6.945312 L 3.894531 0 Z M 2.851562 0 "/>
</g>
<g id="glyph-1-11">
<path d="M 0.683594 2.195312 L 0.574219 1.289062 C 0.785156 1.34375 0.96875 1.371094 1.128906 1.375 C 1.339844 1.371094 1.511719 1.335938 1.640625 1.265625 C 1.769531 1.195312 1.875 1.09375 1.960938 0.96875 C 2.019531 0.867188 2.117188 0.628906 2.257812 0.246094 C 2.269531 0.191406 2.300781 0.113281 2.34375 0.0117188 L 0.175781 -5.703125 L 1.21875 -5.703125 L 2.40625 -2.402344 C 2.558594 -1.980469 2.695312 -1.539062 2.820312 -1.078125 C 2.925781 -1.523438 3.058594 -1.957031 3.21875 -2.378906 L 4.4375 -5.703125 L 5.402344 -5.703125 L 3.234375 0.0976562 C 3 0.71875 2.816406 1.148438 2.691406 1.390625 C 2.515625 1.703125 2.320312 1.9375 2.097656 2.089844 C 1.875 2.238281 1.609375 2.3125 1.304688 2.316406 C 1.117188 2.3125 0.910156 2.273438 0.683594 2.195312 Z M 0.683594 2.195312 "/>
</g>
<g id="glyph-1-12">
<path d="M 0.726562 2.1875 L 0.726562 -5.703125 L 1.605469 -5.703125 L 1.605469 -4.960938 C 1.8125 -5.25 2.046875 -5.46875 2.308594 -5.613281 C 2.570312 -5.757812 2.886719 -5.828125 3.261719 -5.832031 C 3.746094 -5.828125 4.175781 -5.703125 4.550781 -5.457031 C 4.921875 -5.203125 5.203125 -4.851562 5.390625 -4.394531 C 5.578125 -3.9375 5.671875 -3.4375 5.675781 -2.894531 C 5.671875 -2.308594 5.566406 -1.78125 5.359375 -1.316406 C 5.148438 -0.847656 4.84375 -0.488281 4.449219 -0.242188 C 4.046875 0.0078125 3.628906 0.128906 3.191406 0.128906 C 2.867188 0.128906 2.578125 0.0625 2.320312 -0.0742188 C 2.0625 -0.210938 1.851562 -0.382812 1.691406 -0.589844 L 1.691406 2.1875 Z M 1.601562 -2.820312 C 1.597656 -2.082031 1.746094 -1.539062 2.046875 -1.191406 C 2.339844 -0.835938 2.699219 -0.660156 3.125 -0.664062 C 3.550781 -0.660156 3.917969 -0.84375 4.226562 -1.210938 C 4.53125 -1.574219 4.6875 -2.136719 4.6875 -2.898438 C 4.6875 -3.625 4.535156 -4.167969 4.238281 -4.53125 C 3.9375 -4.890625 3.582031 -5.074219 3.167969 -5.074219 C 2.753906 -5.074219 2.390625 -4.878906 2.074219 -4.496094 C 1.757812 -4.109375 1.597656 -3.550781 1.601562 -2.820312 Z M 1.601562 -2.820312 "/>
</g>
<g id="glyph-1-13">
<path d="M -0.167969 2.1875 L -0.167969 1.488281 L 6.242188 1.488281 L 6.242188 2.1875 Z M -0.167969 2.1875 "/>
</g>
<g id="glyph-1-14">
<path d="M 0.730469 -6.761719 L 0.730469 -7.875 L 1.695312 -7.875 L 1.695312 -6.761719 Z M 0.730469 0 L 0.730469 -5.703125 L 1.695312 -5.703125 L 1.695312 0 Z M 0.730469 0 "/>
</g>
<g id="glyph-1-15">
<path d="M 0.703125 0 L 0.703125 -7.875 L 1.671875 -7.875 L 1.671875 0 Z M 0.703125 0 "/>
</g>
<g id="glyph-1-16">
<path d="M 4.425781 0 L 4.425781 -0.71875 C 4.058594 -0.152344 3.527344 0.128906 2.832031 0.128906 C 2.371094 0.128906 1.953125 0.00390625 1.574219 -0.246094 C 1.191406 -0.496094 0.894531 -0.84375 0.6875 -1.296875 C 0.476562 -1.742188 0.375 -2.261719 0.375 -2.847656 C 0.375 -3.414062 0.46875 -3.929688 0.660156 -4.394531 C 0.847656 -4.859375 1.132812 -5.214844 1.515625 -5.460938 C 1.894531 -5.707031 2.320312 -5.828125 2.789062 -5.832031 C 3.132812 -5.828125 3.4375 -5.757812 3.707031 -5.613281 C 3.972656 -5.46875 4.191406 -5.277344 4.359375 -5.046875 L 4.359375 -7.875 L 5.324219 -7.875 L 5.324219 0 Z M 1.371094 -2.847656 C 1.371094 -2.113281 1.523438 -1.566406 1.832031 -1.207031 C 2.136719 -0.84375 2.5 -0.660156 2.921875 -0.664062 C 3.339844 -0.660156 3.699219 -0.835938 3.996094 -1.183594 C 4.292969 -1.527344 4.441406 -2.054688 4.441406 -2.765625 C 4.441406 -3.546875 4.289062 -4.117188 3.988281 -4.484375 C 3.6875 -4.84375 3.316406 -5.027344 2.878906 -5.03125 C 2.445312 -5.027344 2.085938 -4.851562 1.800781 -4.503906 C 1.511719 -4.152344 1.371094 -3.601562 1.371094 -2.847656 Z M 1.371094 -2.847656 "/>
</g>
<g id="glyph-1-17">
<path d="M 1.359375 2.316406 L 0.664062 2.316406 C 1.734375 0.597656 2.273438 -1.121094 2.273438 -2.847656 C 2.273438 -3.519531 2.195312 -4.1875 2.039062 -4.851562 C 1.917969 -5.386719 1.746094 -5.902344 1.53125 -6.398438 C 1.386719 -6.71875 1.097656 -7.253906 0.664062 -8.007812 L 1.359375 -8.007812 C 2.03125 -7.105469 2.527344 -6.203125 2.851562 -5.300781 C 3.125 -4.515625 3.261719 -3.699219 3.265625 -2.851562 C 3.261719 -1.882812 3.078125 -0.949219 2.707031 -0.046875 C 2.335938 0.851562 1.886719 1.636719 1.359375 2.316406 Z M 1.359375 2.316406 "/>
</g>
<g id="glyph-2-0">
<path d="M 0 -0.714844 L -5.703125 -0.714844 L -5.703125 -1.585938 L -4.839844 -1.585938 C -5.242188 -1.804688 -5.507812 -2.007812 -5.636719 -2.199219 C -5.765625 -2.382812 -5.828125 -2.589844 -5.832031 -2.820312 C -5.828125 -3.140625 -5.726562 -3.472656 -5.523438 -3.8125 L -4.625 -3.480469 C -4.761719 -3.242188 -4.832031 -3.003906 -4.835938 -2.773438 C -4.832031 -2.554688 -4.769531 -2.363281 -4.644531 -2.199219 C -4.515625 -2.027344 -4.339844 -1.910156 -4.113281 -1.84375 C -3.769531 -1.730469 -3.390625 -1.675781 -2.984375 -1.679688 L 0 -1.679688 Z M 0 -0.714844 "/>
</g>
<g id="glyph-2-1">
<path d="M -6.761719 -0.730469 L -7.875 -0.730469 L -7.875 -1.699219 L -6.761719 -1.699219 Z M 0 -0.730469 L -5.703125 -0.730469 L -5.703125 -1.699219 L 0 -1.695312 Z M 0 -0.730469 "/>
</g>
<g id="glyph-2-2">
<path d="M -2.089844 -4.445312 L -1.964844 -5.398438 C -1.308594 -5.289062 -0.796875 -5.023438 -0.425781 -4.597656 C -0.0546875 -4.167969 0.128906 -3.644531 0.128906 -3.023438 C 0.128906 -2.242188 -0.125 -1.613281 -0.636719 -1.140625 C -1.144531 -0.664062 -1.875 -0.425781 -2.832031 -0.429688 C -3.441406 -0.425781 -3.980469 -0.527344 -4.445312 -0.734375 C -4.90625 -0.9375 -5.253906 -1.25 -5.484375 -1.667969 C -5.714844 -2.082031 -5.828125 -2.535156 -5.832031 -3.03125 C -5.828125 -3.644531 -5.671875 -4.152344 -5.363281 -4.546875 C -5.046875 -4.941406 -4.601562 -5.191406 -4.027344 -5.304688 L -3.882812 -4.367188 C -4.261719 -4.273438 -4.550781 -4.117188 -4.746094 -3.890625 C -4.941406 -3.664062 -5.039062 -3.386719 -5.039062 -3.066406 C -5.039062 -2.574219 -4.863281 -2.179688 -4.515625 -1.878906 C -4.164062 -1.570312 -3.613281 -1.417969 -2.859375 -1.421875 C -2.089844 -1.417969 -1.53125 -1.566406 -1.183594 -1.863281 C -0.835938 -2.15625 -0.660156 -2.539062 -0.664062 -3.011719 C -0.660156 -3.390625 -0.777344 -3.707031 -1.011719 -3.960938 C -1.242188 -4.214844 -1.601562 -4.375 -2.089844 -4.445312 Z M -2.089844 -4.445312 "/>
</g>
<g id="glyph-2-3">
<path d="M 0 -0.726562 L -7.875 -0.726562 L -7.875 -1.691406 L -5.046875 -1.691406 C -5.566406 -2.140625 -5.828125 -2.710938 -5.832031 -3.398438 C -5.828125 -3.820312 -5.746094 -4.1875 -5.582031 -4.5 C -5.414062 -4.8125 -5.183594 -5.035156 -4.890625 -5.167969 C -4.597656 -5.300781 -4.171875 -5.367188 -3.613281 -5.371094 L 0 -5.371094 L 0 -4.40625 L -3.613281 -4.40625 C -4.09375 -4.40625 -4.445312 -4.300781 -4.667969 -4.089844 C -4.886719 -3.878906 -4.996094 -3.582031 -5 -3.203125 C -4.996094 -2.914062 -4.921875 -2.644531 -4.777344 -2.394531 C -4.625 -2.140625 -4.425781 -1.960938 -4.171875 -1.851562 C -3.917969 -1.742188 -3.566406 -1.6875 -3.121094 -1.691406 L 0 -1.691406 Z M 0 -0.726562 "/>
</g>
<g id="glyph-2-4">
<path d="M 0 -0.726562 L -5.703125 -0.726562 L -5.703125 -1.59375 L -4.894531 -1.59375 C -5.515625 -2.011719 -5.828125 -2.617188 -5.832031 -3.410156 C -5.828125 -3.753906 -5.765625 -4.066406 -5.644531 -4.355469 C -5.519531 -4.640625 -5.359375 -4.859375 -5.160156 -5.003906 C -4.957031 -5.144531 -4.71875 -5.242188 -4.445312 -5.304688 C -4.265625 -5.335938 -3.953125 -5.355469 -3.507812 -5.359375 L 0 -5.359375 L 0 -4.394531 L -3.46875 -4.394531 C -3.863281 -4.394531 -4.15625 -4.355469 -4.351562 -4.28125 C -4.542969 -4.203125 -4.699219 -4.070312 -4.820312 -3.878906 C -4.933594 -3.6875 -4.992188 -3.460938 -4.996094 -3.207031 C -4.992188 -2.792969 -4.859375 -2.4375 -4.601562 -2.140625 C -4.335938 -1.835938 -3.84375 -1.6875 -3.117188 -1.691406 L 0 -1.691406 Z M 0 -0.726562 "/>
</g>
<g id="glyph-2-5">
<path d="M -1.835938 -4.628906 L -1.714844 -5.628906 C -1.125 -5.46875 -0.671875 -5.175781 -0.351562 -4.75 C -0.03125 -4.324219 0.128906 -3.78125 0.128906 -3.121094 C 0.128906 -2.28125 -0.125 -1.617188 -0.640625 -1.132812 C -1.152344 -0.640625 -1.875 -0.398438 -2.804688 -0.402344 C -3.761719 -0.398438 -4.503906 -0.644531 -5.035156 -1.144531 C -5.5625 -1.636719 -5.828125 -2.277344 -5.832031 -3.066406 C -5.828125 -3.824219 -5.570312 -4.449219 -5.050781 -4.933594 C -4.53125 -5.417969 -3.800781 -5.660156 -2.863281 -5.660156 C -2.804688 -5.660156 -2.71875 -5.65625 -2.605469 -5.65625 L -2.605469 -1.402344 C -1.976562 -1.433594 -1.496094 -1.613281 -1.164062 -1.933594 C -0.828125 -2.25 -0.660156 -2.644531 -0.664062 -3.125 C -0.660156 -3.476562 -0.753906 -3.78125 -0.941406 -4.03125 C -1.125 -4.28125 -1.421875 -4.480469 -1.835938 -4.628906 Z M -3.398438 -1.457031 L -3.398438 -4.640625 C -3.878906 -4.597656 -4.238281 -4.472656 -4.480469 -4.273438 C -4.851562 -3.960938 -5.039062 -3.5625 -5.039062 -3.078125 C -5.039062 -2.628906 -4.890625 -2.257812 -4.59375 -1.957031 C -4.296875 -1.652344 -3.898438 -1.484375 -3.398438 -1.457031 Z M -3.398438 -1.457031 "/>
</g>
<g id="glyph-2-6">
<path d="M -1.703125 -0.339844 L -1.851562 -1.292969 C -1.46875 -1.34375 -1.171875 -1.492188 -0.96875 -1.742188 C -0.761719 -1.984375 -0.660156 -2.328125 -0.664062 -2.773438 C -0.660156 -3.210938 -0.75 -3.539062 -0.933594 -3.757812 C -1.113281 -3.96875 -1.328125 -4.078125 -1.574219 -4.082031 C -1.789062 -4.078125 -1.960938 -3.984375 -2.089844 -3.796875 C -2.171875 -3.664062 -2.28125 -3.332031 -2.417969 -2.808594 C -2.59375 -2.097656 -2.75 -1.609375 -2.882812 -1.335938 C -3.011719 -1.0625 -3.191406 -0.851562 -3.421875 -0.710938 C -3.652344 -0.566406 -3.90625 -0.496094 -4.1875 -0.5 C -4.441406 -0.496094 -4.675781 -0.554688 -4.894531 -0.671875 C -5.105469 -0.785156 -5.289062 -0.945312 -5.4375 -1.148438 C -5.546875 -1.296875 -5.636719 -1.5 -5.714844 -1.761719 C -5.789062 -2.019531 -5.828125 -2.300781 -5.832031 -2.601562 C -5.828125 -3.046875 -5.765625 -3.4375 -5.636719 -3.777344 C -5.507812 -4.113281 -5.332031 -4.363281 -5.113281 -4.527344 C -4.890625 -4.6875 -4.597656 -4.796875 -4.234375 -4.859375 L -4.101562 -3.914062 C -4.394531 -3.871094 -4.621094 -3.746094 -4.789062 -3.542969 C -4.953125 -3.335938 -5.039062 -3.042969 -5.039062 -2.667969 C -5.039062 -2.222656 -4.964844 -1.90625 -4.816406 -1.71875 C -4.667969 -1.523438 -4.496094 -1.429688 -4.300781 -1.433594 C -4.175781 -1.429688 -4.0625 -1.46875 -3.964844 -1.550781 C -3.859375 -1.628906 -3.773438 -1.753906 -3.707031 -1.921875 C -3.667969 -2.015625 -3.585938 -2.300781 -3.460938 -2.777344 C -3.273438 -3.460938 -3.121094 -3.9375 -3.007812 -4.207031 C -2.890625 -4.476562 -2.722656 -4.6875 -2.5 -4.84375 C -2.277344 -4.996094 -2.003906 -5.074219 -1.675781 -5.074219 C -1.351562 -5.074219 -1.046875 -4.980469 -0.765625 -4.792969 C -0.480469 -4.605469 -0.261719 -4.332031 -0.105469 -3.980469 C 0.0507812 -3.621094 0.128906 -3.222656 0.128906 -2.777344 C 0.128906 -2.035156 -0.0234375 -1.46875 -0.332031 -1.082031 C -0.640625 -0.691406 -1.097656 -0.445312 -1.703125 -0.339844 Z M -1.703125 -0.339844 "/>
</g>
<g id="glyph-2-7">
<path d="M 2.1875 0.167969 L 1.488281 0.167969 L 1.488281 -6.242188 L 2.1875 -6.242188 Z M 2.1875 0.167969 "/>
</g>
<g id="glyph-2-8">
<path d="M 0 -1.777344 L -5.703125 -0.03125 L -5.703125 -1.03125 L -2.410156 -1.9375 L -1.1875 -2.277344 C -1.246094 -2.289062 -1.636719 -2.386719 -2.363281 -2.574219 L -5.703125 -3.480469 L -5.703125 -4.472656 L -2.394531 -5.328125 L -1.304688 -5.613281 L -2.40625 -5.941406 L -5.703125 -6.917969 L -5.703125 -7.859375 L 0 -6.074219 L 0 -5.070312 L -3.414062 -4.164062 L -4.386719 -3.941406 L 0 -2.789062 Z M 0 -1.777344 "/>
</g>
<g id="glyph-2-9">
<path d="M 0 -0.703125 L -7.875 -0.703125 L -7.875 -1.671875 L 0 -1.671875 Z M 0 -0.703125 "/>
</g>
<g id="glyph-2-10">
<path d="M 0 -4.425781 L -0.71875 -4.425781 C -0.152344 -4.058594 0.128906 -3.527344 0.128906 -2.832031 C 0.128906 -2.371094 0.00390625 -1.953125 -0.246094 -1.574219 C -0.496094 -1.191406 -0.84375 -0.894531 -1.296875 -0.6875 C -1.742188 -0.476562 -2.261719 -0.375 -2.847656 -0.375 C -3.414062 -0.375 -3.929688 -0.46875 -4.394531 -0.660156 C -4.859375 -0.847656 -5.214844 -1.132812 -5.460938 -1.515625 C -5.707031 -1.894531 -5.828125 -2.320312 -5.832031 -2.789062 C -5.828125 -3.132812 -5.757812 -3.4375 -5.613281 -3.707031 C -5.46875 -3.972656 -5.277344 -4.191406 -5.046875 -4.359375 L -7.875 -4.363281 L -7.875 -5.324219 L 0 -5.324219 Z M -2.847656 -1.371094 C -2.113281 -1.371094 -1.566406 -1.523438 -1.207031 -1.832031 C -0.84375 -2.136719 -0.660156 -2.5 -0.664062 -2.921875 C -0.660156 -3.339844 -0.835938 -3.699219 -1.183594 -3.996094 C -1.527344 -4.292969 -2.054688 -4.441406 -2.765625 -4.441406 C -3.546875 -4.441406 -4.117188 -4.289062 -4.484375 -3.988281 C -4.84375 -3.6875 -5.027344 -3.316406 -5.03125 -2.878906 C -5.027344 -2.445312 -4.851562 -2.085938 -4.503906 -1.800781 C -4.152344 -1.511719 -3.601562 -1.371094 -2.847656 -1.371094 Z M -2.847656 -1.371094 "/>
</g>
</g>
<clipPath id="clip-0">
<path clip-rule="nonzero" d="M 33.773438 5.480469 L 272.851562 5.480469 L 272.851562 280.726562 L 33.773438 280.726562 Z M 33.773438 5.480469 "/>
</clipPath>
<clipPath id="clip-1">
<path clip-rule="nonzero" d="M 33.773438 233 L 272.851562 233 L 272.851562 235 L 33.773438 235 Z M 33.773438 233 "/>
</clipPath>
<clipPath id="clip-2">
<path clip-rule="nonzero" d="M 33.773438 139 L 272.851562 139 L 272.851562 141 L 33.773438 141 Z M 33.773438 139 "/>
</clipPath>
<clipPath id="clip-3">
<path clip-rule="nonzero" d="M 33.773438 45 L 272.851562 45 L 272.851562 47 L 33.773438 47 Z M 33.773438 45 "/>
</clipPath>
<clipPath id="clip-4">
<path clip-rule="nonzero" d="M 78 5.480469 L 80 5.480469 L 80 280.726562 L 78 280.726562 Z M 78 5.480469 "/>
</clipPath>
<clipPath id="clip-5">
<path clip-rule="nonzero" d="M 128 5.480469 L 129 5.480469 L 129 280.726562 L 128 280.726562 Z M 128 5.480469 "/>
</clipPath>
<clipPath id="clip-6">
<path clip-rule="nonzero" d="M 177 5.480469 L 179 5.480469 L 179 280.726562 L 177 280.726562 Z M 177 5.480469 "/>
</clipPath>
<clipPath id="clip-7">
<path clip-rule="nonzero" d="M 227 5.480469 L 228 5.480469 L 228 280.726562 L 227 280.726562 Z M 227 5.480469 "/>
</clipPath>
<clipPath id="clip-8">
<path clip-rule="nonzero" d="M 33.773438 186 L 272.851562 186 L 272.851562 188 L 33.773438 188 Z M 33.773438 186 "/>
</clipPath>
<clipPath id="clip-9">
<path clip-rule="nonzero" d="M 33.773438 92 L 272.851562 92 L 272.851562 94 L 33.773438 94 Z M 33.773438 92 "/>
</clipPath>
<clipPath id="clip-10">
<path clip-rule="nonzero" d="M 53 5.480469 L 56 5.480469 L 56 280.726562 L 53 280.726562 Z M 53 5.480469 "/>
</clipPath>
<clipPath id="clip-11">
<path clip-rule="nonzero" d="M 103 5.480469 L 105 5.480469 L 105 280.726562 L 103 280.726562 Z M 103 5.480469 "/>
</clipPath>
<clipPath id="clip-12">
<path clip-rule="nonzero" d="M 152 5.480469 L 154 5.480469 L 154 280.726562 L 152 280.726562 Z M 152 5.480469 "/>
</clipPath>
<clipPath id="clip-13">
<path clip-rule="nonzero" d="M 202 5.480469 L 204 5.480469 L 204 280.726562 L 202 280.726562 Z M 202 5.480469 "/>
</clipPath>
<clipPath id="clip-14">
<path clip-rule="nonzero" d="M 251 5.480469 L 253 5.480469 L 253 280.726562 L 251 280.726562 Z M 251 5.480469 "/>
</clipPath>
<clipPath id="clip-15">
<path clip-rule="nonzero" d="M 33.773438 5.480469 L 272.851562 5.480469 L 272.851562 280.726562 L 33.773438 280.726562 Z M 33.773438 5.480469 "/>
</clipPath>
</defs>
<rect x="-40" y="-31.3" width="480" height="375.6" fill="rgb(100%, 100%, 100%)" fill-opacity="1"/>
<rect x="-40" y="-31.3" width="480" height="375.6" fill="rgb(100%, 100%, 100%)" fill-opacity="1"/>
<path fill="none" stroke-width="1.066978" stroke-linecap="round" stroke-linejoin="round" stroke="rgb(100%, 100%, 100%)" stroke-opacity="1" stroke-miterlimit="10" d="M 0 313 L 400 313 L 400 0 L 0 0 Z M 0 313 "/>
<g clip-path="url(#clip-0)">
<path fill-rule="nonzero" fill="rgb(100%, 100%, 100%)" fill-opacity="1" d="M 33.773438 280.726562 L 272.851562 280.726562 L 272.851562 5.480469 L 33.773438 5.480469 Z M 33.773438 280.726562 "/>
</g>
<g clip-path="url(#clip-1)">
<path fill="none" stroke-width="0.533489" stroke-linecap="butt" stroke-linejoin="round" stroke="rgb(92.156863%, 92.156863%, 92.156863%)" stroke-opacity="1" stroke-miterlimit="10" d="M 33.773438 233.8125 L 272.851562 233.8125 "/>
</g>
<g clip-path="url(#clip-2)">
<path fill="none" stroke-width="0.533489" stroke-linecap="butt" stroke-linejoin="round" stroke="rgb(92.156863%, 92.156863%, 92.156863%)" stroke-opacity="1" stroke-miterlimit="10" d="M 33.773438 139.976562 L 272.851562 139.976562 "/>
</g>
<g clip-path="url(#clip-3)">
<path fill="none" stroke-width="0.533489" stroke-linecap="butt" stroke-linejoin="round" stroke="rgb(92.156863%, 92.156863%, 92.156863%)" stroke-opacity="1" stroke-miterlimit="10" d="M 33.773438 46.140625 L 272.851562 46.140625 "/>
</g>
<g clip-path="url(#clip-4)">
<path fill="none" stroke-width="0.533489" stroke-linecap="butt" stroke-linejoin="round" stroke="rgb(92.156863%, 92.156863%, 92.156863%)" stroke-opacity="1" stroke-miterlimit="10" d="M 79.21875 280.726562 L 79.21875 5.480469 "/>
</g>
<g clip-path="url(#clip-5)">
<path fill="none" stroke-width="0.533489" stroke-linecap="butt" stroke-linejoin="round" stroke="rgb(92.156863%, 92.156863%, 92.156863%)" stroke-opacity="1" stroke-miterlimit="10" d="M 128.617188 280.726562 L 128.617188 5.480469 "/>
</g>
<g clip-path="url(#clip-6)">
<path fill="none" stroke-width="0.533489" stroke-linecap="butt" stroke-linejoin="round" stroke="rgb(92.156863%, 92.156863%, 92.156863%)" stroke-opacity="1" stroke-miterlimit="10" d="M 178.011719 280.726562 L 178.011719 5.480469 "/>
</g>
<g clip-path="url(#clip-7)">
<path fill="none" stroke-width="0.533489" stroke-linecap="butt" stroke-linejoin="round" stroke="rgb(92.156863%, 92.156863%, 92.156863%)" stroke-opacity="1" stroke-miterlimit="10" d="M 227.40625 280.726562 L 227.40625 5.480469 "/>
</g>
<g clip-path="url(#clip-8)">
<path fill="none" stroke-width="1.066978" stroke-linecap="butt" stroke-linejoin="round" stroke="rgb(92.156863%, 92.156863%, 92.156863%)" stroke-opacity="1" stroke-miterlimit="10" d="M 33.773438 186.894531 L 272.851562 186.894531 "/>
</g>
<g clip-path="url(#clip-9)">
<path fill="none" stroke-width="1.066978" stroke-linecap="butt" stroke-linejoin="round" stroke="rgb(92.156863%, 92.156863%, 92.156863%)" stroke-opacity="1" stroke-miterlimit="10" d="M 33.773438 93.058594 L 272.851562 93.058594 "/>
</g>
<g clip-path="url(#clip-10)">
<path fill="none" stroke-width="1.066978" stroke-linecap="butt" stroke-linejoin="round" stroke="rgb(92.156863%, 92.156863%, 92.156863%)" stroke-opacity="1" stroke-miterlimit="10" d="M 54.519531 280.726562 L 54.519531 5.480469 "/>
</g>
<g clip-path="url(#clip-11)">
<path fill="none" stroke-width="1.066978" stroke-linecap="butt" stroke-linejoin="round" stroke="rgb(92.156863%, 92.156863%, 92.156863%)" stroke-opacity="1" stroke-miterlimit="10" d="M 103.917969 280.726562 L 103.917969 5.480469 "/>
</g>
<g clip-path="url(#clip-12)">
<path fill="none" stroke-width="1.066978" stroke-linecap="butt" stroke-linejoin="round" stroke="rgb(92.156863%, 92.156863%, 92.156863%)" stroke-opacity="1" stroke-miterlimit="10" d="M 153.3125 280.726562 L 153.3125 5.480469 "/>
</g>
<g clip-path="url(#clip-13)">
<path fill="none" stroke-width="1.066978" stroke-linecap="butt" stroke-linejoin="round" stroke="rgb(92.156863%, 92.156863%, 92.156863%)" stroke-opacity="1" stroke-miterlimit="10" d="M 202.710938 280.726562 L 202.710938 5.480469 "/>
</g>
<g clip-path="url(#clip-14)">
<path fill="none" stroke-width="1.066978" stroke-linecap="butt" stroke-linejoin="round" stroke="rgb(92.156863%, 92.156863%, 92.156863%)" stroke-opacity="1" stroke-miterlimit="10" d="M 252.105469 280.726562 L 252.105469 5.480469 "/>
</g>
<path fill-rule="nonzero" fill="rgb(0%, 74.901961%, 76.862745%)" fill-opacity="1" stroke-width="0.708661" stroke-linecap="round" stroke-linejoin="round" stroke="rgb(0%, 74.901961%, 76.862745%)" stroke-opacity="1" stroke-miterlimit="10" d="M 165.148438 17.992188 C 165.148438 20.597656 161.238281 20.597656 161.238281 17.992188 C 161.238281 15.382812 165.148438 15.382812 165.148438 17.992188 "/>
<path fill-rule="nonzero" fill="rgb(0%, 74.901961%, 76.862745%)" fill-opacity="1" stroke-width="0.708661" stroke-linecap="round" stroke-linejoin="round" stroke="rgb(0%, 74.901961%, 76.862745%)" stroke-opacity="1" stroke-miterlimit="10" d="M 86.113281 111.828125 C 86.113281 114.433594 82.203125 114.433594 82.203125 111.828125 C 82.203125 109.21875 86.113281 109.21875 86.113281 111.828125 "/>
<path fill-rule="nonzero" fill="rgb(97.254902%, 46.27451%, 42.745098%)" fill-opacity="1" stroke-width="0.708661" stroke-linecap="round" stroke-linejoin="round" stroke="rgb(97.254902%, 46.27451%, 42.745098%)" stroke-opacity="1" stroke-miterlimit="10" d="M 86.113281 205.660156 C 86.113281 208.269531 82.203125 208.269531 82.203125 205.660156 C 82.203125 203.054688 86.113281 203.054688 86.113281 205.660156 "/>
<path fill-rule="nonzero" fill="rgb(0%, 74.901961%, 76.862745%)" fill-opacity="1" stroke-width="0.708661" stroke-linecap="round" stroke-linejoin="round" stroke="rgb(0%, 74.901961%, 76.862745%)" stroke-opacity="1" stroke-miterlimit="10" d="M 115.75 158.742188 C 115.75 161.351562 111.84375 161.351562 111.84375 158.742188 C 111.84375 156.136719 115.75 156.136719 115.75 158.742188 "/>
<path fill-rule="nonzero" fill="rgb(0%, 74.901961%, 76.862745%)" fill-opacity="1" stroke-width="0.708661" stroke-linecap="round" stroke-linejoin="round" stroke="rgb(0%, 74.901961%, 76.862745%)" stroke-opacity="1" stroke-miterlimit="10" d="M 130.570312 186.894531 C 130.570312 189.5 126.660156 189.5 126.660156 186.894531 C 126.660156 184.289062 130.570312 184.289062 130.570312 186.894531 "/>
<path fill-rule="nonzero" fill="rgb(0%, 74.901961%, 76.862745%)" fill-opacity="1" stroke-width="0.708661" stroke-linecap="round" stroke-linejoin="round" stroke="rgb(0%, 74.901961%, 76.862745%)" stroke-opacity="1" stroke-miterlimit="10" d="M 135.511719 139.976562 C 135.511719 142.582031 131.601562 142.582031 131.601562 139.976562 C 131.601562 137.371094 135.511719 137.371094 135.511719 139.976562 "/>
<path fill-rule="nonzero" fill="rgb(0%, 74.901961%, 76.862745%)" fill-opacity="1" stroke-width="0.708661" stroke-linecap="round" stroke-linejoin="round" stroke="rgb(0%, 74.901961%, 76.862745%)" stroke-opacity="1" stroke-miterlimit="10" d="M 130.570312 93.058594 C 130.570312 95.664062 126.660156 95.664062 126.660156 93.058594 C 126.660156 90.453125 130.570312 90.453125 130.570312 93.058594 "/>
<path fill-rule="nonzero" fill="rgb(0%, 74.901961%, 76.862745%)" fill-opacity="1" stroke-width="0.708661" stroke-linecap="round" stroke-linejoin="round" stroke="rgb(0%, 74.901961%, 76.862745%)" stroke-opacity="1" stroke-miterlimit="10" d="M 160.207031 158.742188 C 160.207031 161.351562 156.296875 161.351562 156.296875 158.742188 C 156.296875 156.136719 160.207031 156.136719 160.207031 158.742188 "/>
<path fill-rule="nonzero" fill="rgb(0%, 74.901961%, 76.862745%)" fill-opacity="1" stroke-width="0.708661" stroke-linecap="round" stroke-linejoin="round" stroke="rgb(0%, 74.901961%, 76.862745%)" stroke-opacity="1" stroke-miterlimit="10" d="M 224.421875 215.046875 C 224.421875 217.652344 220.515625 217.652344 220.515625 215.046875 C 220.515625 212.4375 224.421875 212.4375 224.421875 215.046875 "/>
<path fill-rule="nonzero" fill="rgb(97.254902%, 46.27451%, 42.745098%)" fill-opacity="1" stroke-width="0.708661" stroke-linecap="round" stroke-linejoin="round" stroke="rgb(97.254902%, 46.27451%, 42.745098%)" stroke-opacity="1" stroke-miterlimit="10" d="M 56.476562 215.046875 C 56.476562 217.652344 52.566406 217.652344 52.566406 215.046875 C 52.566406 212.4375 56.476562 212.4375 56.476562 215.046875 "/>
<path fill-rule="nonzero" fill="rgb(0%, 74.901961%, 76.862745%)" fill-opacity="1" stroke-width="0.708661" stroke-linecap="round" stroke-linejoin="round" stroke="rgb(0%, 74.901961%, 76.862745%)" stroke-opacity="1" stroke-miterlimit="10" d="M 175.027344 177.511719 C 175.027344 180.117188 171.117188 180.117188 171.117188 177.511719 C 171.117188 174.90625 175.027344 174.90625 175.027344 177.511719 "/>
<path fill-rule="nonzero" fill="rgb(97.254902%, 46.27451%, 42.745098%)" fill-opacity="1" stroke-width="0.708661" stroke-linecap="round" stroke-linejoin="round" stroke="rgb(97.254902%, 46.27451%, 42.745098%)" stroke-opacity="1" stroke-miterlimit="10" d="M 165.148438 130.59375 C 165.148438 133.199219 161.238281 133.199219 161.238281 130.59375 C 161.238281 127.988281 165.148438 127.988281 165.148438 130.59375 "/>
<path fill-rule="nonzero" fill="rgb(0%, 74.901961%, 76.862745%)" fill-opacity="1" stroke-width="0.708661" stroke-linecap="round" stroke-linejoin="round" stroke="rgb(0%, 74.901961%, 76.862745%)" stroke-opacity="1" stroke-miterlimit="10" d="M 263.941406 83.675781 C 263.941406 86.28125 260.03125 86.28125 260.03125 83.675781 C 260.03125 81.070312 263.941406 81.070312 263.941406 83.675781 "/>
<path fill-rule="nonzero" fill="rgb(97.254902%, 46.27451%, 42.745098%)" fill-opacity="1" stroke-width="0.708661" stroke-linecap="round" stroke-linejoin="round" stroke="rgb(97.254902%, 46.27451%, 42.745098%)" stroke-opacity="1" stroke-miterlimit="10" d="M 81.175781 205.660156 C 81.175781 208.269531 77.265625 208.269531 77.265625 205.660156 C 77.265625 203.054688 81.175781 203.054688 81.175781 205.660156 "/>
<path fill-rule="nonzero" fill="rgb(97.254902%, 46.27451%, 42.745098%)" fill-opacity="1" stroke-width="0.708661" stroke-linecap="round" stroke-linejoin="round" stroke="rgb(97.254902%, 46.27451%, 42.745098%)" stroke-opacity="1" stroke-miterlimit="10" d="M 46.597656 243.195312 C 46.597656 245.800781 42.6875 245.800781 42.6875 243.195312 C 42.6875 240.589844 46.597656 240.589844 46.597656 243.195312 "/>
<path fill-rule="nonzero" fill="rgb(97.254902%, 46.27451%, 42.745098%)" fill-opacity="1" stroke-width="0.708661" stroke-linecap="round" stroke-linejoin="round" stroke="rgb(97.254902%, 46.27451%, 42.745098%)" stroke-opacity="1" stroke-miterlimit="10" d="M 66.355469 261.964844 C 66.355469 264.570312 62.445312 264.570312 62.445312 261.964844 C 62.445312 259.355469 66.355469 259.355469 66.355469 261.964844 "/>
<path fill-rule="nonzero" fill="rgb(0%, 74.901961%, 76.862745%)" fill-opacity="1" stroke-width="0.708661" stroke-linecap="round" stroke-linejoin="round" stroke="rgb(0%, 74.901961%, 76.862745%)" stroke-opacity="1" stroke-miterlimit="10" d="M 263.941406 121.210938 C 263.941406 123.816406 260.03125 123.816406 260.03125 121.210938 C 260.03125 118.601562 263.941406 118.601562 263.941406 121.210938 "/>
<path fill-rule="nonzero" fill="rgb(0%, 74.901961%, 76.862745%)" fill-opacity="1" stroke-width="0.708661" stroke-linecap="round" stroke-linejoin="round" stroke="rgb(0%, 74.901961%, 76.862745%)" stroke-opacity="1" stroke-miterlimit="10" d="M 105.871094 139.976562 C 105.871094 142.582031 101.960938 142.582031 101.960938 139.976562 C 101.960938 137.371094 105.871094 137.371094 105.871094 139.976562 "/>
<path fill-rule="nonzero" fill="rgb(0%, 74.901961%, 76.862745%)" fill-opacity="1" stroke-width="0.708661" stroke-linecap="round" stroke-linejoin="round" stroke="rgb(0%, 74.901961%, 76.862745%)" stroke-opacity="1" stroke-miterlimit="10" d="M 204.664062 111.828125 C 204.664062 114.433594 200.753906 114.433594 200.753906 111.828125 C 200.753906 109.21875 204.664062 109.21875 204.664062 111.828125 "/>
<path fill-rule="nonzero" fill="rgb(0%, 74.901961%, 76.862745%)" fill-opacity="1" stroke-width="0.708661" stroke-linecap="round" stroke-linejoin="round" stroke="rgb(0%, 74.901961%, 76.862745%)" stroke-opacity="1" stroke-miterlimit="10" d="M 66.355469 196.277344 C 66.355469 198.882812 62.445312 198.882812 62.445312 196.277344 C 62.445312 193.671875 66.355469 193.671875 66.355469 196.277344 "/>
<path fill-rule="nonzero" fill="rgb(0%, 74.901961%, 76.862745%)" fill-opacity="1" stroke-width="0.708661" stroke-linecap="round" stroke-linejoin="round" stroke="rgb(0%, 74.901961%, 76.862745%)" stroke-opacity="1" stroke-miterlimit="10" d="M 66.355469 196.277344 C 66.355469 198.882812 62.445312 198.882812 62.445312 196.277344 C 62.445312 193.671875 66.355469 193.671875 66.355469 196.277344 "/>
<path fill-rule="nonzero" fill="rgb(0%, 74.901961%, 76.862745%)" fill-opacity="1" stroke-width="0.708661" stroke-linecap="round" stroke-linejoin="round" stroke="rgb(0%, 74.901961%, 76.862745%)" stroke-opacity="1" stroke-miterlimit="10" d="M 125.628906 224.429688 C 125.628906 227.035156 121.722656 227.035156 121.722656 224.429688 C 121.722656 221.824219 125.628906 221.824219 125.628906 224.429688 "/>
<path fill-rule="nonzero" fill="rgb(97.254902%, 46.27451%, 42.745098%)" fill-opacity="1" stroke-width="0.708661" stroke-linecap="round" stroke-linejoin="round" stroke="rgb(97.254902%, 46.27451%, 42.745098%)" stroke-opacity="1" stroke-miterlimit="10" d="M 56.476562 252.578125 C 56.476562 255.1875 52.566406 255.1875 52.566406 252.578125 C 52.566406 249.972656 56.476562 249.972656 56.476562 252.578125 "/>
<path fill-rule="nonzero" fill="rgb(0%, 74.901961%, 76.862745%)" fill-opacity="1" stroke-width="0.708661" stroke-linecap="round" stroke-linejoin="round" stroke="rgb(0%, 74.901961%, 76.862745%)" stroke-opacity="1" stroke-miterlimit="10" d="M 61.414062 205.660156 C 61.414062 208.269531 57.507812 208.269531 57.507812 205.660156 C 57.507812 203.054688 61.414062 203.054688 61.414062 205.660156 "/>
<path fill-rule="nonzero" fill="rgb(0%, 74.901961%, 76.862745%)" fill-opacity="1" stroke-width="0.708661" stroke-linecap="round" stroke-linejoin="round" stroke="rgb(0%, 74.901961%, 76.862745%)" stroke-opacity="1" stroke-miterlimit="10" d="M 76.234375 168.128906 C 76.234375 170.734375 72.324219 170.734375 72.324219 168.128906 C 72.324219 165.519531 76.234375 165.519531 76.234375 168.128906 "/>
<path fill-rule="nonzero" fill="rgb(0%, 74.901961%, 76.862745%)" fill-opacity="1" stroke-width="0.708661" stroke-linecap="round" stroke-linejoin="round" stroke="rgb(0%, 74.901961%, 76.862745%)" stroke-opacity="1" stroke-miterlimit="10" d="M 91.054688 158.742188 C 91.054688 161.351562 87.144531 161.351562 87.144531 158.742188 C 87.144531 156.136719 91.054688 156.136719 91.054688 158.742188 "/>
<path fill-rule="nonzero" fill="rgb(97.254902%, 46.27451%, 42.745098%)" fill-opacity="1" stroke-width="0.708661" stroke-linecap="round" stroke-linejoin="round" stroke="rgb(97.254902%, 46.27451%, 42.745098%)" stroke-opacity="1" stroke-miterlimit="10" d="M 51.535156 233.8125 C 51.535156 236.417969 47.625 236.417969 47.625 233.8125 C 47.625 231.207031 51.535156 231.207031 51.535156 233.8125 "/>
<path fill-rule="nonzero" fill="rgb(60%, 60%, 60%)" fill-opacity="0.4" d="M 44.640625 226.800781 L 46.140625 225.753906 L 47.644531 224.691406 L 49.144531 223.613281 L 50.644531 222.519531 L 52.144531 221.410156 L 53.644531 220.285156 L 55.144531 219.140625 L 56.648438 217.980469 L 58.148438 216.796875 L 59.648438 215.589844 L 61.148438 214.367188 L 62.648438 213.117188 L 64.148438 211.84375 L 65.652344 210.546875 L 67.152344 209.222656 L 68.652344 207.871094 L 70.152344 206.496094 L 71.652344 205.09375 L 73.152344 203.660156 L 74.65625 202.203125 L 76.15625 200.71875 L 77.65625 199.203125 L 79.15625 197.660156 L 80.65625 196.09375 L 82.15625 194.5 L 83.660156 192.878906 L 85.160156 191.234375 L 86.660156 189.5625 L 88.160156 187.871094 L 89.660156 186.152344 L 91.160156 184.417969 L 92.664062 182.65625 L 94.164062 180.878906 L 95.664062 179.085938 L 97.164062 177.269531 L 98.664062 175.441406 L 100.164062 173.59375 L 101.667969 171.730469 L 103.167969 169.855469 L 104.667969 167.96875 L 106.167969 166.066406 L 107.667969 164.15625 L 109.167969 162.230469 L 110.671875 160.296875 L 112.171875 158.355469 L 113.671875 156.402344 L 115.171875 154.441406 L 116.671875 152.472656 L 118.171875 150.496094 L 119.675781 148.511719 L 121.175781 146.523438 L 122.675781 144.527344 L 124.175781 142.523438 L 125.675781 140.515625 L 127.175781 138.503906 L 128.679688 136.484375 L 130.179688 134.460938 L 131.679688 132.433594 L 133.179688 130.402344 L 134.679688 128.367188 L 136.179688 126.328125 L 137.683594 124.285156 L 140.683594 120.191406 L 145.183594 114.027344 L 146.6875 111.964844 L 148.1875 109.902344 L 151.1875 105.769531 L 154.1875 101.628906 L 155.691406 99.554688 L 157.191406 97.480469 L 161.691406 91.246094 L 163.191406 89.164062 L 163.191406 174.304688 L 161.691406 175.152344 L 158.691406 176.855469 L 155.691406 178.566406 L 154.1875 179.421875 L 152.6875 180.28125 L 149.6875 182.007812 L 146.6875 183.742188 L 145.183594 184.613281 L 143.683594 185.484375 L 139.183594 188.121094 L 137.683594 189.007812 L 136.179688 189.894531 L 133.179688 191.683594 L 131.679688 192.582031 L 128.679688 194.394531 L 127.175781 195.308594 L 125.675781 196.226562 L 124.175781 197.148438 L 122.675781 198.078125 L 121.175781 199.011719 L 119.675781 199.953125 L 118.171875 200.898438 L 116.671875 201.855469 L 115.171875 202.816406 L 113.671875 203.785156 L 112.171875 204.765625 L 110.671875 205.753906 L 109.167969 206.75 L 107.667969 207.757812 L 106.167969 208.777344 L 104.667969 209.808594 L 103.167969 210.851562 L 101.667969 211.90625 L 100.164062 212.976562 L 98.664062 214.058594 L 97.164062 215.160156 L 95.664062 216.277344 L 94.164062 217.414062 L 92.664062 218.566406 L 91.160156 219.738281 L 89.660156 220.933594 L 88.160156 222.148438 L 86.660156 223.386719 L 85.160156 224.644531 L 83.660156 225.929688 L 82.15625 227.242188 L 80.65625 228.578125 L 79.15625 229.941406 L 77.65625 231.332031 L 76.15625 232.746094 L 74.65625 234.191406 L 73.152344 235.664062 L 71.652344 237.164062 L 70.152344 238.691406 L 68.652344 240.246094 L 67.152344 241.828125 L 65.652344 243.4375 L 64.148438 245.070312 L 62.648438 246.726562 L 61.148438 248.410156 L 59.648438 250.113281 L 58.148438 251.839844 L 56.648438 253.589844 L 55.144531 255.355469 L 53.644531 257.144531 L 52.144531 258.949219 L 50.644531 260.773438 L 49.144531 262.609375 L 47.644531 264.464844 L 46.140625 266.332031 L 44.640625 268.214844 Z M 44.640625 226.800781 "/>
<path fill="none" stroke-width="2.133957" stroke-linecap="butt" stroke-linejoin="round" stroke="rgb(97.254902%, 46.27451%, 42.745098%)" stroke-opacity="1" stroke-miterlimit="10" d="M 44.640625 247.507812 L 46.140625 246.042969 L 47.644531 244.578125 L 49.144531 243.113281 L 50.644531 241.644531 L 55.144531 237.25 L 56.648438 235.785156 L 58.148438 234.320312 L 59.648438 232.851562 L 64.148438 228.457031 L 65.652344 226.992188 L 67.152344 225.527344 L 68.652344 224.058594 L 73.152344 219.664062 L 74.65625 218.199219 L 76.15625 216.734375 L 77.65625 215.265625 L 82.15625 210.871094 L 83.660156 209.40625 L 85.160156 207.9375 L 91.160156 202.078125 L 92.664062 200.613281 L 94.164062 199.144531 L 100.164062 193.285156 L 101.667969 191.820312 L 103.167969 190.351562 L 109.167969 184.492188 L 110.671875 183.027344 L 112.171875 181.558594 L 118.171875 175.699219 L 119.675781 174.234375 L 121.175781 172.765625 L 127.175781 166.90625 L 128.679688 165.441406 L 130.179688 163.972656 L 136.179688 158.113281 L 137.683594 156.648438 L 139.183594 155.179688 L 145.183594 149.320312 L 146.6875 147.855469 L 148.1875 146.386719 L 154.1875 140.527344 L 155.691406 139.0625 L 157.191406 137.59375 L 163.191406 131.734375 "/>
<path fill-rule="nonzero" fill="rgb(60%, 60%, 60%)" fill-opacity="0.4" d="M 59.460938 136.105469 L 62.023438 136.09375 L 64.589844 136.070312 L 67.152344 136.035156 L 69.714844 135.992188 L 72.277344 135.933594 L 74.84375 135.859375 L 77.40625 135.773438 L 79.96875 135.671875 L 82.535156 135.554688 L 85.097656 135.421875 L 87.660156 135.265625 L 90.222656 135.09375 L 92.789062 134.902344 L 95.351562 134.683594 L 97.914062 134.445312 L 100.476562 134.183594 L 103.042969 133.894531 L 105.605469 133.574219 L 108.167969 133.230469 L 110.734375 132.851562 L 113.296875 132.445312 L 115.859375 132.003906 L 118.421875 131.527344 L 120.988281 131.011719 L 123.550781 130.464844 L 126.113281 129.875 L 128.679688 129.246094 L 131.242188 128.582031 L 133.804688 127.871094 L 136.367188 127.125 L 138.933594 126.332031 L 141.496094 125.503906 L 144.058594 124.628906 L 146.625 123.71875 L 149.1875 122.765625 L 151.75 121.773438 L 154.3125 120.742188 L 156.878906 119.675781 L 159.441406 118.574219 L 162.003906 117.4375 L 164.570312 116.265625 L 167.132812 115.066406 L 169.695312 113.832031 L 172.257812 112.570312 L 174.824219 111.28125 L 177.386719 109.96875 L 179.949219 108.628906 L 182.515625 107.269531 L 185.078125 105.886719 L 187.640625 104.480469 L 190.203125 103.058594 L 192.769531 101.617188 L 195.332031 100.15625 L 197.894531 98.683594 L 200.460938 97.191406 L 203.023438 95.6875 L 205.585938 94.171875 L 208.148438 92.640625 L 210.714844 91.101562 L 213.277344 89.546875 L 215.839844 87.984375 L 218.402344 86.410156 L 220.96875 84.828125 L 223.53125 83.238281 L 226.09375 81.636719 L 228.660156 80.03125 L 231.222656 78.417969 L 233.785156 76.796875 L 236.347656 75.167969 L 238.914062 73.535156 L 241.476562 71.894531 L 244.039062 70.25 L 246.605469 68.597656 L 249.167969 66.941406 L 251.730469 65.28125 L 254.292969 63.617188 L 256.859375 61.949219 L 259.421875 60.277344 L 261.984375 58.601562 L 261.984375 166.632812 L 259.421875 166.527344 L 256.859375 166.429688 L 254.292969 166.335938 L 251.730469 166.246094 L 249.167969 166.160156 L 246.605469 166.078125 L 244.039062 166 L 241.476562 165.929688 L 238.914062 165.863281 L 236.347656 165.804688 L 233.785156 165.75 L 231.222656 165.703125 L 228.660156 165.660156 L 226.09375 165.628906 L 223.53125 165.601562 L 220.96875 165.585938 L 218.402344 165.578125 L 215.839844 165.578125 L 213.277344 165.589844 L 210.714844 165.609375 L 208.148438 165.640625 L 205.585938 165.683594 L 203.023438 165.742188 L 200.460938 165.8125 L 197.894531 165.894531 L 195.332031 165.996094 L 192.769531 166.109375 L 190.203125 166.242188 L 187.640625 166.394531 L 185.078125 166.5625 L 182.515625 166.753906 L 179.949219 166.964844 L 177.386719 167.199219 L 174.824219 167.460938 L 172.257812 167.746094 L 169.695312 168.058594 L 167.132812 168.398438 L 164.570312 168.773438 L 162.003906 169.175781 L 159.441406 169.613281 L 156.878906 170.082031 L 154.3125 170.589844 L 151.75 171.132812 L 149.1875 171.714844 L 146.625 172.339844 L 144.058594 173 L 141.496094 173.699219 L 138.933594 174.445312 L 136.367188 175.226562 L 133.804688 176.050781 L 131.242188 176.917969 L 128.679688 177.824219 L 126.113281 178.769531 L 123.550781 179.757812 L 120.988281 180.78125 L 118.421875 181.84375 L 115.859375 182.941406 L 113.296875 184.070312 L 110.734375 185.238281 L 108.167969 186.433594 L 105.605469 187.660156 L 103.042969 188.917969 L 100.476562 190.203125 L 97.914062 191.511719 L 95.351562 192.847656 L 92.789062 194.207031 L 90.222656 195.585938 L 87.660156 196.988281 L 85.097656 198.40625 L 82.535156 199.847656 L 79.96875 201.304688 L 77.40625 202.773438 L 74.84375 204.261719 L 72.277344 205.765625 L 69.714844 207.28125 L 67.152344 208.808594 L 64.589844 210.347656 L 62.023438 211.898438 L 59.460938 213.460938 Z M 59.460938 136.105469 "/>
<path fill="none" stroke-width="2.133957" stroke-linecap="butt" stroke-linejoin="round" stroke="rgb(0%, 74.901961%, 76.862745%)" stroke-opacity="1" stroke-miterlimit="10" d="M 59.460938 174.785156 L 62.023438 173.996094 L 64.589844 173.210938 L 67.152344 172.421875 L 69.714844 171.636719 L 72.277344 170.847656 L 74.84375 170.0625 L 77.40625 169.273438 L 79.96875 168.488281 L 82.535156 167.699219 L 87.660156 166.128906 L 90.222656 165.339844 L 92.789062 164.554688 L 95.351562 163.765625 L 97.914062 162.980469 L 100.476562 162.191406 L 103.042969 161.40625 L 105.605469 160.617188 L 108.167969 159.832031 L 110.734375 159.042969 L 115.859375 157.472656 L 118.421875 156.683594 L 120.988281 155.898438 L 123.550781 155.109375 L 126.113281 154.324219 L 128.679688 153.535156 L 131.242188 152.75 L 133.804688 151.960938 L 136.367188 151.175781 L 138.933594 150.386719 L 144.058594 148.816406 L 146.625 148.027344 L 149.1875 147.242188 L 151.75 146.453125 L 154.3125 145.667969 L 156.878906 144.878906 L 159.441406 144.09375 L 162.003906 143.304688 L 164.570312 142.519531 L 167.132812 141.730469 L 172.257812 140.160156 L 174.824219 139.371094 L 177.386719 138.585938 L 179.949219 137.796875 L 182.515625 137.011719 L 185.078125 136.222656 L 187.640625 135.4375 L 190.203125 134.648438 L 192.769531 133.863281 L 195.332031 133.074219 L 197.894531 132.289062 L 200.460938 131.503906 L 203.023438 130.714844 L 205.585938 129.929688 L 208.148438 129.140625 L 210.714844 128.355469 L 213.277344 127.566406 L 215.839844 126.78125 L 218.402344 125.992188 L 220.96875 125.207031 L 223.53125 124.417969 L 226.09375 123.632812 L 228.660156 122.847656 L 231.222656 122.058594 L 233.785156 121.273438 L 236.347656 120.484375 L 238.914062 119.699219 L 241.476562 118.910156 L 244.039062 118.125 L 246.605469 117.335938 L 249.167969 116.550781 L 251.730469 115.761719 L 254.292969 114.976562 L 256.859375 114.191406 L 259.421875 113.402344 L 261.984375 112.617188 "/>
<g clip-path="url(#clip-15)">
<path fill="none" stroke-width="1.066978" stroke-linecap="round" stroke-linejoin="round" stroke="rgb(20%, 20%, 20%)" stroke-opacity="1" stroke-miterlimit="10" d="M 33.773438 280.726562 L 272.851562 280.726562 L 272.851562 5.480469 L 33.773438 5.480469 Z M 33.773438 280.726562 "/>
</g>
<g fill="rgb(30.196078%, 30.196078%, 30.196078%)" fill-opacity="1">
<use xlink:href="#glyph-0-0" x="19.054688" y="190.042969"/>
<use xlink:href="#glyph-0-1" x="23.948828" y="190.042969"/>
</g>
<g fill="rgb(30.196078%, 30.196078%, 30.196078%)" fill-opacity="1">
<use xlink:href="#glyph-0-2" x="19.054688" y="96.207031"/>
<use xlink:href="#glyph-0-1" x="23.948828" y="96.207031"/>
</g>
<path fill="none" stroke-width="1.066978" stroke-linecap="butt" stroke-linejoin="round" stroke="rgb(20%, 20%, 20%)" stroke-opacity="1" stroke-miterlimit="10" d="M 31.035156 186.894531 L 33.773438 186.894531 "/>
<path fill="none" stroke-width="1.066978" stroke-linecap="butt" stroke-linejoin="round" stroke="rgb(20%, 20%, 20%)" stroke-opacity="1" stroke-miterlimit="10" d="M 31.035156 93.058594 L 33.773438 93.058594 "/>
<path fill="none" stroke-width="1.066978" stroke-linecap="butt" stroke-linejoin="round" stroke="rgb(20%, 20%, 20%)" stroke-opacity="1" stroke-miterlimit="10" d="M 54.519531 283.464844 L 54.519531 280.726562 "/>
<path fill="none" stroke-width="1.066978" stroke-linecap="butt" stroke-linejoin="round" stroke="rgb(20%, 20%, 20%)" stroke-opacity="1" stroke-miterlimit="10" d="M 103.917969 283.464844 L 103.917969 280.726562 "/>
<path fill="none" stroke-width="1.066978" stroke-linecap="butt" stroke-linejoin="round" stroke="rgb(20%, 20%, 20%)" stroke-opacity="1" stroke-miterlimit="10" d="M 153.3125 283.464844 L 153.3125 280.726562 "/>
<path fill="none" stroke-width="1.066978" stroke-linecap="butt" stroke-linejoin="round" stroke="rgb(20%, 20%, 20%)" stroke-opacity="1" stroke-miterlimit="10" d="M 202.710938 283.464844 L 202.710938 280.726562 "/>
<path fill="none" stroke-width="1.066978" stroke-linecap="butt" stroke-linejoin="round" stroke="rgb(20%, 20%, 20%)" stroke-opacity="1" stroke-miterlimit="10" d="M 252.105469 283.464844 L 252.105469 280.726562 "/>
<g fill="rgb(30.196078%, 30.196078%, 30.196078%)" fill-opacity="1">
<use xlink:href="#glyph-0-3" x="49.625" y="291.957031"/>
<use xlink:href="#glyph-0-1" x="54.519141" y="291.957031"/>
</g>
<g fill="rgb(30.196078%, 30.196078%, 30.196078%)" fill-opacity="1">
<use xlink:href="#glyph-0-0" x="96.578125" y="291.957031"/>
<use xlink:href="#glyph-0-1" x="101.472266" y="291.957031"/>
<use xlink:href="#glyph-0-1" x="106.366406" y="291.957031"/>
</g>
<g fill="rgb(30.196078%, 30.196078%, 30.196078%)" fill-opacity="1">
<use xlink:href="#glyph-0-0" x="145.972656" y="291.957031"/>
<use xlink:href="#glyph-0-3" x="150.866797" y="291.957031"/>
<use xlink:href="#glyph-0-1" x="155.760938" y="291.957031"/>
</g>
<g fill="rgb(30.196078%, 30.196078%, 30.196078%)" fill-opacity="1">
<use xlink:href="#glyph-0-2" x="195.371094" y="291.957031"/>
<use xlink:href="#glyph-0-1" x="200.265234" y="291.957031"/>
<use xlink:href="#glyph-0-1" x="205.159375" y="291.957031"/>
</g>
<g fill="rgb(30.196078%, 30.196078%, 30.196078%)" fill-opacity="1">
<use xlink:href="#glyph-0-2" x="244.765625" y="291.957031"/>
<use xlink:href="#glyph-0-3" x="249.659766" y="291.957031"/>
<use xlink:href="#glyph-0-1" x="254.553906" y="291.957031"/>
</g>
<g fill="rgb(0%, 0%, 0%)" fill-opacity="1">
<use xlink:href="#glyph-1-0" x="142.304688" y="305.269531"/>
<use xlink:href="#glyph-1-1" x="148.422363" y="305.269531"/>
<use xlink:href="#glyph-1-2" x="152.085449" y="305.269531"/>
<use xlink:href="#glyph-1-0" x="158.203125" y="305.269531"/>
</g>
<g fill="rgb(0%, 0%, 0%)" fill-opacity="1">
<use xlink:href="#glyph-2-0" x="13.351562" y="176.113281"/>
<use xlink:href="#glyph-2-1" x="13.351562" y="172.450195"/>
<use xlink:href="#glyph-2-2" x="13.351562" y="170.006348"/>
<use xlink:href="#glyph-2-3" x="13.351562" y="164.506348"/>
<use xlink:href="#glyph-2-4" x="13.351563" y="158.388672"/>
<use xlink:href="#glyph-2-5" x="13.351563" y="152.270996"/>
<use xlink:href="#glyph-2-6" x="13.351563" y="146.15332"/>
<use xlink:href="#glyph-2-6" x="13.351563" y="140.65332"/>
<use xlink:href="#glyph-2-7" x="13.351563" y="135.15332"/>
<use xlink:href="#glyph-2-8" x="13.351563" y="129.035645"/>
<use xlink:href="#glyph-2-1" x="13.351563" y="121.091797"/>
<use xlink:href="#glyph-2-9" x="13.351563" y="118.647949"/>
<use xlink:href="#glyph-2-10" x="13.351563" y="116.204102"/>
</g>
<path fill-rule="nonzero" fill="rgb(100%, 100%, 100%)" fill-opacity="1" d="M 283.8125 174.226562 L 394.519531 174.226562 L 394.519531 111.976562 L 283.8125 111.976562 Z M 283.8125 174.226562 "/>
<g fill="rgb(0%, 0%, 0%)" fill-opacity="1">
<use xlink:href="#glyph-1-0" x="289.292969" y="127.019531"/>
<use xlink:href="#glyph-1-3" x="295.410645" y="127.019531"/>
<use xlink:href="#glyph-1-4" x="300.910645" y="127.019531"/>
<use xlink:href="#glyph-1-5" x="303.966797" y="127.019531"/>
<use xlink:href="#glyph-1-0" x="307.022949" y="127.019531"/>
<use xlink:href="#glyph-1-6" x="313.140625" y="127.019531"/>
<use xlink:href="#glyph-1-7" x="318.640625" y="127.019531"/>
<use xlink:href="#glyph-1-8" x="321.696777" y="127.019531"/>
<use xlink:href="#glyph-1-1" x="327.814453" y="127.019531"/>
<use xlink:href="#glyph-1-9" x="331.477539" y="127.019531"/>
<use xlink:href="#glyph-1-10" x="335.140625" y="127.019531"/>
<use xlink:href="#glyph-1-11" x="341.859863" y="127.019531"/>
<use xlink:href="#glyph-1-12" x="347.359863" y="127.019531"/>
<use xlink:href="#glyph-1-2" x="353.477539" y="127.019531"/>
<use xlink:href="#glyph-1-13" x="359.595215" y="127.019531"/>
<use xlink:href="#glyph-1-5" x="365.712891" y="127.019531"/>
<use xlink:href="#glyph-1-14" x="368.769043" y="127.019531"/>
<use xlink:href="#glyph-1-2" x="371.212891" y="127.019531"/>
<use xlink:href="#glyph-1-15" x="377.330566" y="127.019531"/>
<use xlink:href="#glyph-1-16" x="379.774414" y="127.019531"/>
<use xlink:href="#glyph-1-17" x="385.89209" y="127.019531"/>
</g>
<path fill-rule="nonzero" fill="rgb(100%, 100%, 100%)" fill-opacity="1" d="M 289.292969 151.46875 L 306.574219 151.46875 L 306.574219 134.1875 L 289.292969 134.1875 Z M 289.292969 151.46875 "/>
<path fill-rule="nonzero" fill="rgb(97.254902%, 46.27451%, 42.745098%)" fill-opacity="1" stroke-width="0.708661" stroke-linecap="round" stroke-linejoin="round" stroke="rgb(97.254902%, 46.27451%, 42.745098%)" stroke-opacity="1" stroke-miterlimit="10" d="M 299.886719 142.828125 C 299.886719 145.433594 295.976562 145.433594 295.976562 142.828125 C 295.976562 140.21875 299.886719 140.21875 299.886719 142.828125 "/>
<path fill-rule="nonzero" fill="rgb(60%, 60%, 60%)" fill-opacity="0.4" d="M 289.292969 151.46875 L 306.574219 151.46875 L 306.574219 134.1875 L 289.292969 134.1875 Z M 289.292969 151.46875 "/>
<path fill="none" stroke-width="2.133957" stroke-linecap="butt" stroke-linejoin="round" stroke="rgb(97.254902%, 46.27451%, 42.745098%)" stroke-opacity="1" stroke-miterlimit="10" d="M 291.019531 142.828125 L 304.84375 142.828125 "/>
<path fill-rule="nonzero" fill="rgb(100%, 100%, 100%)" fill-opacity="1" d="M 289.292969 168.746094 L 306.574219 168.746094 L 306.574219 151.464844 L 289.292969 151.464844 Z M 289.292969 168.746094 "/>
<path fill-rule="nonzero" fill="rgb(0%, 74.901961%, 76.862745%)" fill-opacity="1" stroke-width="0.708661" stroke-linecap="round" stroke-linejoin="round" stroke="rgb(0%, 74.901961%, 76.862745%)" stroke-opacity="1" stroke-miterlimit="10" d="M 299.886719 160.105469 C 299.886719 162.714844 295.976562 162.714844 295.976562 160.105469 C 295.976562 157.5 299.886719 157.5 299.886719 160.105469 "/>
<path fill-rule="nonzero" fill="rgb(60%, 60%, 60%)" fill-opacity="0.4" d="M 289.292969 168.746094 L 306.574219 168.746094 L 306.574219 151.464844 L 289.292969 151.464844 Z M 289.292969 168.746094 "/>
<path fill="none" stroke-width="2.133957" stroke-linecap="butt" stroke-linejoin="round" stroke="rgb(0%, 74.901961%, 76.862745%)" stroke-opacity="1" stroke-miterlimit="10" d="M 291.019531 160.105469 L 304.84375 160.105469 "/>
<g fill="rgb(0%, 0%, 0%)" fill-opacity="1">
<use xlink:href="#glyph-0-0" x="312.050781" y="145.976562"/>
</g>
<g fill="rgb(0%, 0%, 0%)" fill-opacity="1">
<use xlink:href="#glyph-0-2" x="312.050781" y="163.257812"/>
</g>
</svg>
